<mxfile host="app.diagrams.net" modified="2024-05-14T07:54:47.518Z" agent="Mozilla/5.0 (Windows NT 10.0; Win64; x64) AppleWebKit/537.36 (KHTML, like Gecko) Chrome/124.0.0.0 Safari/537.36" etag="z70eG2aIawdQPHJJgn1-" version="24.3.1" type="device">
  <diagram name="Página-1" id="pPiwGTWQFZ155s_8xN19">
    <mxGraphModel dx="995" dy="731" grid="1" gridSize="10" guides="1" tooltips="1" connect="1" arrows="1" fold="1" page="1" pageScale="1" pageWidth="827" pageHeight="1169" math="0" shadow="0">
      <root>
        <mxCell id="0" />
        <mxCell id="1" parent="0" />
        <mxCell id="JfnoBQDZP3zRKv3DhaKb-6" style="edgeStyle=orthogonalEdgeStyle;rounded=0;orthogonalLoop=1;jettySize=auto;html=1;exitX=0.5;exitY=1;exitDx=0;exitDy=0;entryX=0.5;entryY=0;entryDx=0;entryDy=0;" parent="1" source="JfnoBQDZP3zRKv3DhaKb-1" target="JfnoBQDZP3zRKv3DhaKb-3" edge="1">
          <mxGeometry relative="1" as="geometry" />
        </mxCell>
        <mxCell id="JfnoBQDZP3zRKv3DhaKb-1" value="1" style="ellipse;whiteSpace=wrap;html=1;aspect=fixed;" parent="1" vertex="1">
          <mxGeometry x="100" y="100" width="40" height="40" as="geometry" />
        </mxCell>
        <mxCell id="JfnoBQDZP3zRKv3DhaKb-12" style="edgeStyle=orthogonalEdgeStyle;rounded=0;orthogonalLoop=1;jettySize=auto;html=1;exitX=0.5;exitY=1;exitDx=0;exitDy=0;entryX=0.5;entryY=0;entryDx=0;entryDy=0;" parent="1" source="JfnoBQDZP3zRKv3DhaKb-3" target="JfnoBQDZP3zRKv3DhaKb-10" edge="1">
          <mxGeometry relative="1" as="geometry" />
        </mxCell>
        <mxCell id="JfnoBQDZP3zRKv3DhaKb-3" value="2" style="ellipse;whiteSpace=wrap;html=1;aspect=fixed;" parent="1" vertex="1">
          <mxGeometry x="100" y="180" width="40" height="40" as="geometry" />
        </mxCell>
        <mxCell id="JfnoBQDZP3zRKv3DhaKb-4" value="5" style="ellipse;whiteSpace=wrap;html=1;aspect=fixed;" parent="1" vertex="1">
          <mxGeometry x="290" y="340" width="40" height="40" as="geometry" />
        </mxCell>
        <mxCell id="JfnoBQDZP3zRKv3DhaKb-23" style="edgeStyle=orthogonalEdgeStyle;rounded=0;orthogonalLoop=1;jettySize=auto;html=1;exitX=0.5;exitY=1;exitDx=0;exitDy=0;entryX=0.5;entryY=0;entryDx=0;entryDy=0;" parent="1" source="JfnoBQDZP3zRKv3DhaKb-10" target="JfnoBQDZP3zRKv3DhaKb-15" edge="1">
          <mxGeometry relative="1" as="geometry" />
        </mxCell>
        <mxCell id="JfnoBQDZP3zRKv3DhaKb-10" value="3" style="ellipse;whiteSpace=wrap;html=1;aspect=fixed;" parent="1" vertex="1">
          <mxGeometry x="100" y="260" width="40" height="40" as="geometry" />
        </mxCell>
        <mxCell id="JfnoBQDZP3zRKv3DhaKb-15" value="4" style="ellipse;whiteSpace=wrap;html=1;aspect=fixed;" parent="1" vertex="1">
          <mxGeometry x="100" y="330" width="40" height="40" as="geometry" />
        </mxCell>
        <mxCell id="JfnoBQDZP3zRKv3DhaKb-19" value="6" style="ellipse;whiteSpace=wrap;html=1;aspect=fixed;" parent="1" vertex="1">
          <mxGeometry x="190" y="400" width="40" height="40" as="geometry" />
        </mxCell>
        <mxCell id="JfnoBQDZP3zRKv3DhaKb-20" value="" style="endArrow=classic;html=1;rounded=0;exitX=1;exitY=0.5;exitDx=0;exitDy=0;" parent="1" source="JfnoBQDZP3zRKv3DhaKb-1" edge="1">
          <mxGeometry width="50" height="50" relative="1" as="geometry">
            <mxPoint x="200" y="250" as="sourcePoint" />
            <mxPoint x="300" y="340" as="targetPoint" />
          </mxGeometry>
        </mxCell>
        <mxCell id="JfnoBQDZP3zRKv3DhaKb-21" value="" style="endArrow=classic;html=1;rounded=0;exitX=1;exitY=0.5;exitDx=0;exitDy=0;" parent="1" source="JfnoBQDZP3zRKv3DhaKb-3" edge="1">
          <mxGeometry width="50" height="50" relative="1" as="geometry">
            <mxPoint x="150" y="140" as="sourcePoint" />
            <mxPoint x="300" y="340" as="targetPoint" />
          </mxGeometry>
        </mxCell>
        <mxCell id="JfnoBQDZP3zRKv3DhaKb-22" value="" style="endArrow=classic;html=1;rounded=0;exitX=1;exitY=0.5;exitDx=0;exitDy=0;" parent="1" source="JfnoBQDZP3zRKv3DhaKb-10" edge="1">
          <mxGeometry width="50" height="50" relative="1" as="geometry">
            <mxPoint x="150" y="220" as="sourcePoint" />
            <mxPoint x="300" y="340" as="targetPoint" />
          </mxGeometry>
        </mxCell>
        <mxCell id="JfnoBQDZP3zRKv3DhaKb-25" value="" style="endArrow=classic;html=1;rounded=0;exitX=0;exitY=0.5;exitDx=0;exitDy=0;entryX=0.5;entryY=0;entryDx=0;entryDy=0;" parent="1" source="JfnoBQDZP3zRKv3DhaKb-4" target="JfnoBQDZP3zRKv3DhaKb-19" edge="1">
          <mxGeometry width="50" height="50" relative="1" as="geometry">
            <mxPoint x="210" y="300" as="sourcePoint" />
            <mxPoint x="260" y="250" as="targetPoint" />
          </mxGeometry>
        </mxCell>
        <mxCell id="JfnoBQDZP3zRKv3DhaKb-26" value="" style="endArrow=classic;html=1;rounded=0;exitX=0.5;exitY=1;exitDx=0;exitDy=0;entryX=0.5;entryY=0;entryDx=0;entryDy=0;" parent="1" source="JfnoBQDZP3zRKv3DhaKb-15" target="JfnoBQDZP3zRKv3DhaKb-19" edge="1">
          <mxGeometry width="50" height="50" relative="1" as="geometry">
            <mxPoint x="300" y="370" as="sourcePoint" />
            <mxPoint x="210" y="420" as="targetPoint" />
          </mxGeometry>
        </mxCell>
        <mxCell id="JfnoBQDZP3zRKv3DhaKb-27" value="&lt;span style=&quot;font-size: 19px;&quot;&gt;E1_Pruebas de software&lt;/span&gt;" style="text;html=1;align=center;verticalAlign=middle;whiteSpace=wrap;rounded=0;" parent="1" vertex="1">
          <mxGeometry x="200" y="80" width="220" height="30" as="geometry" />
        </mxCell>
        <mxCell id="JfnoBQDZP3zRKv3DhaKb-28" value="" style="rounded=0;whiteSpace=wrap;html=1;fillColor=#FF1717;gradientColor=none;opacity=40;" parent="1" vertex="1">
          <mxGeometry x="50" y="70" width="590" height="490" as="geometry" />
        </mxCell>
        <mxCell id="JfnoBQDZP3zRKv3DhaKb-30" value="&lt;div&gt;Complejidad ciclomática: aristas(línea)-Nodos(circulo)+2&lt;/div&gt;V(G)=(8-6)+2=4&lt;div&gt;Complejidad ciclomática: Nodos Predicados(circulo con dos salidas)+1&lt;/div&gt;&lt;div&gt;V(G)=(3)+1=4&lt;/div&gt;&lt;div&gt;V(G)=Numero De Regiones = 4&lt;/div&gt;&lt;div&gt;&lt;br&gt;&lt;/div&gt;" style="text;html=1;align=center;verticalAlign=middle;whiteSpace=wrap;rounded=0;" parent="1" vertex="1">
          <mxGeometry x="90" y="480" width="470" height="60" as="geometry" />
        </mxCell>
        <mxCell id="yl7WPXbBKKlvr1R5QcPl-6" value="" style="shape=image;verticalLabelPosition=bottom;labelBackgroundColor=default;verticalAlign=top;aspect=fixed;imageAspect=0;image=data:image/png,iVBORw0KGgoAAAANSUhEUgAAAUUAAAFqCAYAAACNjki+AAAgAElEQVR4Ae2dYbKkKgyFXZcL6vW4ml7J/HMxvAqIjYgBEgF990zVne4WgvARjgIKkwn+/fv3L/iFr7UEwK+W2DE++B151P4Cv1pix/ie3+QPT9Nk8AcG8AH4wF/2AdLDidSR/v4yCJQdQgAfgA+QD1gtjO8U/W981hMgqPgnJwB+cnZkCX5yfsTO89tbcXhQnvTftvRQ/zYFeenBT86OLMFPzi/UP4iinOPJEk55QlJ1APyqcJ0ig98JSfEBiGIxqrqIcMo6XnFs8IuJ1P0GvzpeYWyIYkjjxu9wSh1M8AM/HQG5dVtRXL9m+czBbPZsPssqz22h5fr9mM+3/Xm47NzRqL+f9Czg58uduUPY92Om6WNaZuMOfo7EapY54jh/TFs3dOec256Erej7+EWnWb/mE/CcP4spb2lnLtm22sHXohLuekXHbx5T/JoPzeIQNEttNQRgnibT1lm2RjDXVFaMRf/7Dqe0ovj5mnVdD3+luVuXj6lz2sKUOzjqHfxcaeKGuJrvQhfqlqIen7OQ643R7uMXZmprW+STdJhuekggi9tazGVLj7Pv4GthCek7sfP8bhVF26BThR1QyLjQPX57qJpzeVGUprFS40/VgTRBb9ehDu/g57IbN0Q66i7Y7e64U+f08Pp83scvyO+6mHmaj3fZ38XMxXfeAi4dfC0oof1K7Dy/G0XROV36jnA13+92pbFZWI9d7Dm8gnuIX/Pdu+FbFzy8jY8qhcTkd26XBnWnf135uBsfhk233F15qDHwmt+8KPLlsrZb5VJeHA9vs3WBdlU4ln861IG7I9i7TBS2xN3njH1Nobe4d/BzSXkfCjt54bEUE38syLgVhMg3d58kn4l8eibm4fDRbHbcNtn7mQW53Rt1eEz93TKYonLEqXLlCrk7u2NbHeNrcQnI97z/3SeKRfB+UKbAoY5C4CBOdHXaxgipS2gzTY1z65YfbYw5gk6lcew+OXvf3aZKpW6/bsTMQ42B1/yOy3W0zZfrfKf4s6GLhJcJf574tzvfZuPryHeZgu4nb3/MdemvO/iF+f9dJOloeNFOMXHHDi4QiSKV+SeEsc/80vTDirYuGjML2d7HL0yV2pabI6Bhma8bFztE4H3BcQnrwnL0kMzGrbOvHQrQrPtsHSi6zY7PfPWbbpf3Lt8ZokmlfbBJi2JYEcc0qIFEeY0awFVWueN3OKV1sOBuj9KsYXMligcWqUKEPK94Bw38lERofwosO3AHP3cm70O/sdnjmKIP95cEsnLHrkUx4TNU5p1JKk0nxIc0QxQ3MAuTu49fmKr7vn6XYLKF7oBDdlH8Q7nOXA6iOMjXohy7m67tjbQhd4qUIYK8fD7m83ETMTUN3xboAL5SFJMCmHD6mFzm9x1O6a+66VOdHewo9sbUiOJlHaT4HATA5e7SPp357NE7+G05y8w+JzjmRNEyiWa07cXLd6+v0wwvSHczC6Hexy9MNf6+bneOx5uK63KduZxF0TPcztXB1+JSETvP7z5RPHRPolPax3To1puOO0gkgnQrbg8dBO4MMW74NvWDDUTR90bKRDFTB1lRzNhH1V/60ztlafzreAkfOkROhbtjh7u6kEP4/ZCW/3GdphNFF37t9z4d+ed9/MI80FMQ4W/67u6Ay8p15lIniu25UYkaiaITpt8dXwAyVP6Ucx0E7gzxdlG0lXq80rlzRFesoAglX+9wyi53irk6sOERn6o6LKF1jnMHP5dqwocOp0uFu2OXopjyGbrE74KRSjPoPueYH/In+3Efv+D8Yb3vh2vKdeZyFsX+vrYXZfvSTBT9FcQ9p7g9Zxc/pxg3OD+j3HVMcRPw/SHUeNA8Rlb2+w6n9KKYfk7x7GCnC8bJiQtsLupgnwyLJ1qydVjGK451Bz+XZqLMh5Olwt2xsMxu9v13obR1E/hp/Ns9v+cnA7ehDD/m2IhZWKz7+IWpOgG0XLZnZ93Ey8aloFzep32q9Ps3pHDm7h68L0/fp6v5bCiKdrAweAyG+unxozDkLNs4Ij02QsLU/U6R8B0fI7jjgec7nNI6UDzRMvlHIhKNOXZKPzwRPZLzc0LnOnwduHo8PJJDz6b5Bk7BbB3K3PMOflvp7JhiXOZfrhIcKdCy3MYN6UmHqMyxzxwfY3Jpfr7B2x/RY2MtmP3K1HCVHH/R9H5ZWy7L8TdheBTFMb4WcqPvbUUxPtsf+n1fo/5D0IKigl8AQ/AV/ATQNhOIopwdawmnZPFkA8Evi4iNAH4sHjYQosjikQfCKeXsyBL8wE9HQG4NUZSzYy3RqFk82UDwyyJiI4Afi4cNPIgiNq5KPZCLY95J8Alf+Es+gI2r2GtHfSA5D/7JCYCfnB1Zgp+cnxd+y9EnEx70x/BZRwBOWccrjg1+MZG63+BXxyuMHerffmsTHgwj43s5AThlOatUTPBLUSk/Bn7lrOKYof5BFGM6it9wSgU8dP908MBPxQ+iqMJ3bQxRvGZTEgJ+JZSu44DfNZtcCEQxR0gYDqcUgtvMXskvegVuptWfdBjE1q/kJy7tvYYQxXt57qnBKXcUoi/v4xcsZrAtlmBXcN8XjRBhEBu9j5+4qLcbQhRvR+oShFPqwL6O32kxDr+oRLQUlg5LsfXr+BWXrH1EiGIjxnBKHdgx/I6rJR1XvhGUJyWUgmQkJmP4SXL6PBuIYqM6gVPqwI7g59f682vF+t+uJNtagn7JrP3zt8ZiXOJ4s6o4vOXvEfxalqdn2hDFRrThlDqwj+B3WNuTusPbYsmHz6tyOhG9Xsfxyu6e44/gd09RuqcCUWyEHE6pAzuK3/WmS7Rg7Gzm01/qTjHeV1vHQmI9ip8kr0+zgSg2qhE4pQ5sf37b7DGzidr6/Zrv6e+3f7Yr8U8QfTdcR0Jm3Z+fLJ9PtIIoNqoVOKUObHd+dlIkuuuLu8/ZIj1DECmb3fll2bwnAkSxUV3BKXVgu/OLZ4r9g9jFzxl6QVxMvNHYiDvG7vx01f0oa4hio+qAU+rAjuCn2UzKzTSn11scMdkygp+uxp9jDVFsVBdwSh1Y8AM/HQG5NURRzo61RKNm8WQDwS+LiI0AfiweNhCiyOKRB8Ip5ezIEvzAT0dAbg1RlLNjLdGoWTzZQPDLImIjgB+Lhw2EKLJ45IFwSjk7sgQ/8NMRkFtDFOXsWEs0ahZPNhD8sojYCODH4mEDIYosHnkgnFLOjizBD/x0BOTWEEU5O9YSjZrFkw0EvywiNgL4sXjYQIgii0ceCKeUsyNL8AM/HQG5NURRzo61RKNm8WQDwS+LiI0AfiweNhCiyOKRB8Ip5ezIsj8/t0qO9pW88FVBu3L3iBefh/DT1feTrCGKjWqjf6NuVJBByfbnpxfFfaVtK4SrsSt3Fy8ocS/o/vzuzf/I1CCKjejDKXVg+/PTiqJbaftz2NOUjmHjKp0n9LeGKDZi3r9RNyrIoGT78/Oi+DXLZ7bd92mazVHkGBi09uIUrcfIRG8d1J9f6xL1Sx+i2Ig1nFIHtj8/J4okhMs2Drh3h21R+I2rbFxatfu7mHnelhCbP3taOhr11v351efxqRYQxUY1A6fUge3Pz98phjMjUZf4sGGV38TKldOvpzhv2xkYs5rvQnecP5HVEamz7s+vLn9Pjg1RbFQ7cEod2P78UqIYHqOVta83rvJ3iqGkGuNEVTujLSHZn58kl8+0gSg2qhc4pQ5sf36hAPq8h8dWw25clRxTDO19mn0++/PrU64eZ4EoNqIMp9SB7c8vJWBR95ktUipu6hibyG2B/fndlvXhCUEUG1UBnFIHtj8/J4rhA9fHiZZ8eexziTQD7Z9TtGOKY2ak+/PL83lLjPeKou2ujBnELqlctVOWls/vOje5GU870M9mcA0eOZnM/FnMcRzs2tiJRJ75HW91qPldF+MixIni57vtykc8q2eP3eTKvNVFKLAXJ212uD+/e4tS6mv3ntWl9kpRXL8f4xwv30BbQCtJU+OU5eXb7m4+331bzeVDjflK6Pzd0GK+20xq+VsXriuYm03d76783RKbn2uSGn7Xqf6dkHfzK/O1VrX5OlF0jfjjngcb9LhDSWVInbKqfPFexZSx1DGf4VSYPZbv4lG+5g9djLgLUWoMjY5xNj5zx08pv2Mqf/fXm/mV+Vq7un2dKO4oUg18Dxz/Re2U0vLV2pWIoo+TSzs5AyurCzU/2Wn/N1ZD+J3qP3WRzCAu9bVMMppgiKKGHmOrdsqcAF2ce+++XoQfDq9fs8x0B3h4YfcQhR5CtnHoNY9Mnuy5b3qrQ80vKsVf+zmKn73L214Jsv6w+5bvEm9v+/hx18OrkeW+1rI+IYqN6KqdMiNA6Ww7x8s/LLyNLdrJBBpfTKdmj9LV349RZvLkBHkyd7zVoebHFOkvBA3j532EXnc8CB4N7fi3gMLPoDYqfC2wuv0rRPF2pC5BtVN65+IE65D3bdZ0vzIfAi9++FfRrsYUo+5PJk/+TvGY5VKhPmZRze+Y3J/7NZLffnH0L5Fb+vwbQf7tn919M77WskIhio3oqp2yyil+gngUpJLCRcIXmOwi56/w9uo/m+W7ph/jOY0pUWJBlyhIO/dVzS93gv95+Eh+tgs9z2baFY5g828EVftaw/qDKDaCq3bKYlGsEMSwe7KX+1oUybm9g5w+Dw7vE0ullTrm419/qvldJ/0nQobx232srt7rfa1dNXpfpzNM/jThQX/sSZ8r3bmEdy1r/f1R6/JonJIr35fW+vNjfLTgAC1TRQ9g+7s5/7kV8BR/chMrDpnvPv8emTnGjyglhDqO75xb/1aHhl+U6z/5cwy/SAiTPYfC6kj4WqGlOlqof+8QRQs6voP5NWo1kZsSEDslW75tifttANuP3fhKDD/dZMsxvi1a9AbM8a2NRPyQx8lRU/HveatDzC/M7x/+PoKfvSBGPYjUsaJqOflakdUtkXw7osTeIYq3FLt9Is2ckpxlv1MsKMfT4hdkmaI041d4flU0e2Ebe6F+NT8VfL0xRFHPMJlCG6ek7rLvmiZPGx18Wvwoe8zPNvyYE94UVP6K5k0nvEjmrfwuitP1MESxEW44pQ7sG/nZriJdtPx498Ch7jfy03nMfdYQxftYHlKCUx5wVP8Yw++4gpBd5aY655n3zyXpCWzG8BNk9IEmEMVGlQKn1IEdwc/d6fkVhrZJpH3iwM2s+gbz+0w8+D5wksBTH8HPn/vtn75uqRyYaLmxNuGUOpj9+ZHoZSZH/ONOh89EOSGKCSjvOQRRbFRX/Rt1o4IMSrY7Pytkibu+vfw0aXW9cdUejb5AFA843vYDotioxro36kblGJVsd35ZUeRfUztwgigecLztB0SxUY11b9SNyjEq2f78CrrPpTAgiqWkHhkPotioWvo36kYFGZTsCH7niZbwlcoyENwrmmUp3BNrBL97cj4+FYhiozqAU+rAjuGXeCSn5llD9hVNHY9a6zH8anP5zPgQxUb1AqfUgQU/8NMRkFtDFOXsWEs0ahZPNhD8sojYCODH4mEDIYosHnkgnFLOjizBD/x0BOTWEEU5O9YSjZrFkw0EvywiNgL4sXjYQIgii0ceCKeUsyNL8AM/HQG5NURRzo61RKNm8WQDwS+LiI0AfiweNhCiyOKRB8Ip5ezIEvzAT0dAbg1RlLNjLdGoWTzZQPDLImIjgB+Lhw2EKLJ45IFwSjk7sgQ/8NMRkFtDFOXsWEs0ahZPNhD8sojYCODH4mEDIYosHnkgnFLOjizfye/4muBMW8/qMIit38lPXNxbDSGKt+L8JQan/LGQfHsfv9UstAf3vJjvtgjtcYEJCQW5zfv4yct6tyVE8W6iW3pwSh3Y1/FLLReWXaNRx4izfh0/rjCdwyCKjYDDKXVgh/Czq9yEq2+7fVn2bVpqiwRRrCX2iPgQxUbVMKRRNyrLiGRH8aMu77y4kcB1mc20K2LFxlUEbP3a7vS82/elOIpf31K2ORtEsQ3Xl04UNIIhSHZYo/bdYLt3c3jXSEK3GruI7OEzLtw2tjj58cU4vM/vYfz6FK/pWSCKjfDCKXVgR/Kzd4jT747RlaRi4yprsJov3WlOkbDqsBRbj+RXnMmHRoQoNqoYOKUO7Eh+tgs9h11nKkvFxlV70ZVjkns69V9G8qvP7bMsIIqN6gNOqQM7jB9Ntsz0fGGloO12Ybkr0whNld+H8VPm+wnmEMVGtQCn1IEdwy8SsdNsNFcmZ0sTK6udp/Hd59ls8zac8e1hY/jdXowhCUIUG2GHU+rAjuBnH7aOZotTxy5LttK442Qn2WzDmj9DBJHyN4LfJZeXBdi6myaba/f/BhRQdTUJfuCnI6Czhv/J+UEU5exYSzgliycbCH5ZRGwE8GPxsIEQRRaPPBBOKWdHluAHfjoCcmuIopwda4lGzeLJBoJfFhEbAfxYPGzgQRT//ftn6M8fxGcwaE5vKOAPDOADf8YHrBZ6+fSN3//GZz0BYoh/cgLgJ2dHluAn5xfq396Kw4PypP+2JZxSV//gB346AnLrUP8ginKOJ0s06hOSqgPgV4XrFBn8TkiKD0AUi1HVRYRT1vGKY4NfTKTuN/jV8QpjQxRDGjd+h1PqYIIf+OkIyK0hinJ2rCUaNYsnG/hKftFrfjPt15ItaZsIr+TXBkV1qhDFamRlBnDKMk5Xsd7Hb1tc1i4I4RajXT5uodkRO/q9j9+VJ/Q/DlFsxBxOqQP7On5+xe5QAVPHdFiKrV/Hr7hk7SNCFBsxhlPqwI7hd9y3eZqVq2ZDFHVOMMgaotgI/JhG3agwA5Idwc8vE+Zv9vxvV3y3XqJvML/Pa+F02xpch7fEOoJfy/L0TNvXLZ0TzyneSB5OqYP5CH7xatqHDav8JlZX5dwWnR2xwizeaLmqlKLjEMUiTPWRHtGo67P9GItR/NbvYpbPx3w+HzNvO/K5O8eajau2xWajBWt7wh3Fr2cZW50LotiILJxSB7Y/v232mB6joTtCyv7hTrF046qfIPpuuI6EzLo/P1k+n2gFUWxUK3BKHdju/OykSDT+dxDFkvI8QxApp935leB5SRyIYqOKglPqwHbnF88U+wex7c5+JWXxgriYNR57LDG/OU53fjfnf2RyEMVG9OGUOrAj+K3LNo44TWb+LGatuFN0M83pNTfnAZMtI/jpavw51hDFRnUBp9SBBT/w0xGQW0MU5exYSzRqFk82EPyyiNgI4MfiYQMhiiweeSCcUs6OLMEP/HQE5NYQRTk71hKNmsWTDQS/LCI2AvixeNhAiCKLRx4Ip5SzI0vwAz8dAbk1RFHOjrVEo2bxZAPBL4uIjQB+LB42EKLI4pEHwinl7MgS/MBPR0BuDVGUs2Mt0ahZPNlA8MsiYiOAH4uHDYQosnjkgXBKOTuyBD/w0xGQW0MU5exYSzRqFk82EPyyiNgI4MfiYQMhiiweeSCcUs6OLPvzc6vkaF/JC18VtCt3D1oqpz8/XX0/yRqi2Kg24JQ6sP356UVxX2nbCuFq7MrdxQtK6HjF1v35xTl472+IYqO6g1PqwPbnpxVFt9L2cV1ZOjabAetBDLjT1tX3k6whio1qo3+jblSQQcn25+dF8WuWz2xFZZpmcxQ5BgatqDNF6zEy0VsH9efXukT90ocoNmINp9SB7c/PiSIJob+z27vDtij8xlU2Lq3a/V3MPG9LiM2fPS0djXrr/vzq8/hUC4hio5qBU+rA9ufn7xTDmZGoSxwvHmt/u3L69RTnbTsDY1bzXeiO8yeyOiJ11v351eXvybEhio1qB06pA9ufX0oUw2O0svZs5tOf6zL7O8VQUo1xoqqd0ZaQ7M9Pkstn2kAUG9ULnFIHtj+/UAB93sNjmY2rkmOKob1Ps89nf359ytXjLBDFRpThlDqw/fmlBCzqPrNFSsVNHWMTuS2wP7/bsj48IYhioyqAU+rA9ufnRDF84Po40ZIvj30ukWag/XOKdkxxzIx0f355Pm+J8T5R9Lus0UbltMEQDWw/kLbaKW13rGCQvprHGjxysm3QxPDzEwjeUexn5jmVO97qUPNjypQOcqL4+W678pF/Vc8eu8mVefPNUGDT52x3tD+/G8pS7cs3nDORhPd1Cpp8eHjQH3vG53Y1/3z3bSSXDznv4jYvf0YmbS40Tkm7yLmGlRPFWh7+bmjb8H3Nv3VBojgvP952+06G83535e+WhPWj4cdk788EvY9frS+3q8pQ/54vivHevMQldawdr+KUpU7pXg37uOfdco9zpMqeOuZznQqzx667eJSf8tnT1BgaHcuJu8/g71PK75fC3/72On6XvlnvO9qaf5copkqbgpmK1/mY2iml5aq1s/F5Ucz0ln9kkzOwv+Cab2p+NSf7H8Ydwu9U/6mLZAXsWl+uSJqL+npR3LtrXCkHhKmdUugQVTzWr1lmGle8GpV1XZr547vzbpzNTSScodpz3/RWh5rfOXt/6sgofmHPwvrD7ltOIL3g/D6vL8hVvnxj7fq8UZLP7z6fCu5Al3fvTgk0O6B2SpEolvLYxm/sZAKNL15hCMZ5bBR+DNI58Tb5tVKi8rc61PyuivRHjg/j5/2WXneM3wVn3gg6V0upL58ttUdeLIrbLOF+JdKiuNde7ZTeuS4FK86vhIcXreurdXwWN4Y7JRdK8HeKxyzLnFvN75Txv3VgJL/94uhfIrfo+TeCjrUj8eVjCppfLxXFH7RjA9SguNdW7ZRVoqjh4USr/NrCxD+NKRHTrQt+aCB51mp++VP8r2OM5Ge70PNspoNTZd4I2mtD48t7IqovLxTF8dBKiKudslgUK3iQaJ0eX6oUOTZfqbRSx/IE1fzyp/hfxxjGb/cxSb1X+HLD2nuZKHpoy/6con1ujsYqGkKSJK1xSlsmOyYzm+W72rL6PHxprb9d2PI8TvHpgXf7nCel6LvPv8ceUvHpiu+GCM9jisf4xq02fcNbHRp+ntVf/hzDLxLCZM/hqlbyvnxleffxV4miH6vwmQ4/nzbZInZK60jbenz+zYj9Ob9NlLYB7DyPY3zrPNFbA8e3NtLxF+oKbXmZP+GD8on4m9Bq3+oQ87u7hbw0vRH87DO2hy7zdpGMjqWQ5n05ZdXmmPd1Sv2Fs89toNyRajOnpO7rfqdYkNOnxS/IMkVpxq/w/KJo0QVn5Cuor+Qngn6/EUTxfqY2xTZOSV0Mv+BAScafFr8kzy5OG37l56+PGTy+tD16MvIV1PfxqyfeygKi2IgsnFIH9nX8UhNQqWM6LMXWr+NXXLL2ESGKjRjDKXVgx/A7riBkV7nRFAOiqKE3zBai2Aj9mEbdqDADkh3Bz04U7OO12yTSPkngZlZ9g/l9Xj/47iYPrsNbYh3Br2V5eqbt65bOiYmWG8nDKXUw+/Mj0fs9mpTM/UteU7ONedqbc7IoOHhNAKJ4zUYV0r9Rq7L7OOPu/GxXl7uro0mr642rjgD9M3dXC20cY7f41Z1fi0IMShOi2Ag8nFIHtju/rCi+5zU1It+dn666H2UNUWxUHXBKHdj+/Aq6z9ki/e4QR79h1Z9fFs5rIkAUG1UVnFIHdgS/80RL+EplrjxeEJ/xCuoIfjlCbwmHKDaqKTilDuwYfolHcgpv+Z70mhqRH8NPV+dPsYYoNqoJOKUOLPiBn46A3BqiKGfHWqJRs3iygeCXRcRGAD8WDxsIUWTxyAPhlHJ2ZAl+4KcjILeGKMrZsZZo1CyebCD4ZRGxEcCPxcMGQhRZPPJAOKWcHVmCH/jpCMitIYpydqwlGjWLJxsIfllEbATwY/GwgRBFFo88EE4pZ0eW4Ad+OgJya4iinB1riUbN4skGgl8WERsB/Fg8bCBEkcUjD4RTytmRJfiBn46A3BqiKGfHWqJRs3iygeCXRcRGAD8WDxsIUWTxyAPhlHJ2ZPlOfsfXBI87H+p41Fq/k19tKdvEhyi24frSRt0IhiDZ9zXqbeOqeTHfbTHa4wITAggKk/fxUxT2ZlOI4s1AfXJwSk9C9vk6fqn9WLJrNMrYlFi9jl9JoTrFgSg2Ag2n1IEdwu/7MdMUrr7t9mXZt2mpLRJEsZbYI+JDFBtVw5BG3agsI5IdxY+6vPPi1guzy4Htili5cdX6Ncs8mXm370txFL++pWxzNohiG64YU1RyHdaofTf4u5j5cNdojCnauGobW5wmM9nxRSUIofkwfsL8PskMotioNuCUOrAj+fkFY/0doytJzcZVZLGa7zJH3XEdkxrrkfxq8vnEuBDFRrUCp9SBHcnPdqHn2UyHrm/pxlVhuZVjkmFSld9H8qvM6uOiQxQbVQmcUgd2GD+abJkXus8zn2kyB13kirTbhZEq0whNld+H8VPm+wnmEMVGtQCn1IEdwy8SsdNsNFcmZ0sTK6udp/Hd59ls8zac8e1hY/jdXowhCUIUG2GHU+rAjuBnH7aObg1Txy5Ltm47+tEki51o+QwRRMrfCH6XXF4WYOtummyu3f8bUEDV1ST4gZ+OgM4a/ifnB1GUs2Mt4ZQsnmwg+GURsRHAj8XDBkIUWTzyQDilnB1Zgh/46QjIrSGKcnasJRo1iycbCH5ZRGwE8GPxsIEHUfz375+hP38Qn9uAuR84xyd8Az7wZ3zAaqGXTy+G/jc+6wkQQ/yTEwA/OTuyBD85v1D/9lYcHpQn/bct4ZS6+gc/8NMRkFuH+gdRlHM8WaJRn5BUHQC/KlynyOB3QlJ8AKJYjKouIpyyjlccG/xiInW/wa+OVxgbohjSuPE7nFIHE/zAT0dAbg1RlLNjLdGoWTzZwFfyi17zm2k9xWxJ20R4Jb82KKpThShWIyszgFOWcbqK9T5+2+KydkGI1awr7eznFpp163hflbTN8ffxa8NBkipEUUKtwAZOWQCJifI6fn7F7lABU8eYMt8Z9Dp+dxZemRZEUQnwyhxOeUWm7PgYfsd9m6c53MSqLN+HWBDFA463/IAoNqqpMY26UWEGJDuCn+kMOu8AABc8SURBVF8mzN/s+d+u+G69RN9gfp/Xwum2NbgOb4l1BL+W5emZtq9bOieeU7yRPJxSB/MR/OLVtIs2rvLl3hadHbHCLN5o8ZUg+oQoirDljR7RqPPZfGyMUfzW72KWz8d8Ph8z24ViaWsC+lezcdW22Gy0YG1P2KP49Sxjq3NBFBuRhVPqwPbnt80e221JVyeEhzvF0o2rfoLou+E6EjLr/vxk+XyiFUSxUa3AKXVgu/OzkyLR+N9BFEvK8wxBpJx251eC5yVxIIqNKgpOqQPbnV88U+wfxLY7+5WUxQviYp9RpOcU978S85vjdOd3c/5HJgdRbEQfTqkDO4LfumzjiNNk5s9i1oo7RTfTnF5/cx4w2TKCn67Gn2MNUWxUF3BKHVjwAz8dAbk1RFHOjrVEo2bxZAPBL4uIjQB+LB42EKLI4pEHwinl7MgS/MBPR0BuDVGUs2Mt0ahZPNlA8MsiYiOAH4uHDYQosnjkgXBKOTuyBD/w0xGQW0MU5exYSzRqFk82EPyyiNgI4MfiYQMhiiweeSCcUs6OLMEP/HQE5NYQRTk71hKNmsWTDQS/LCI2AvixeNhAiCKLRx4Ip5SzI0vwAz8dAbk1RFHOjrVEo2bxZAPBL4uIjQB+LB42EKLI4pEHwinl7MiyPz+3So72lbzwVUG7cvegpXL689PV95OsIYqNagNOqQPbn59eFPeVtq0Qrsau3F28oISOV2zdn1+cg/f+hig2qjs4pQ5sf35aUXQrbR/XlaVjsxmwHsSAO21dfT/JGqLYqDb6N+pGBRmUbH9+XhS/ZvnMVlSmaTZHkWNg0Io6U7QeIxO9dVB/fq1L1C99iGIj1nBKHdj+/JwokhD6O7u9O2yLwm9cZePSqt3fxczztoTY/NnT0tGot+7Prz6PT7WAKDaqGTilDmx/fv5OMZwZibrE4cKx+3dXTr+e4rxtZ2DMar4L3XH+RFZHpM66P7+6/D05NkSxUe3AKXVg+/NLiWJ4jFbWns18+nNdZn+nGEqq3eyKFqz1t546JFXW/flVZe/RkSGKjaoHTqkD259fKIA+7+GxzMZVyTHF0N6n2eezP78+5epxFohiI8pwSh3Y/vxSAhZ1n9kipeKmjrGJ3BbYn99tWR+eEESxURXAKXVg+/Nzohg+cH2caMmXxz6XSDPQ/jlFO6Y4Zka6P788n7fEeKEorsEjE9sGQw+k3cwpbTetYPDe70ZHG7rTuBZNADCc/ESBdwj7mXkepeXbG834XTJwovj5brvyEbfq2WM3uTJvzEOBvTxto4D+/G4oSKXP3nDGZBK+DVDg5GOEB/2xZ3z6q/livtvs38i3BjgmLZySdpdzDS4nihunz3ffZnP5UCNf3CbviYyTKM7LL77dnjMRzx/a76L8XVEmfW9X+tmCX+m5/w/x3sev3mdb1VOof88XxXhvXqKS2sS8Fa2KdO92Sif+H/ccXO4xj0tO12JK6ZfPkqbGyujYdfoV6GzUu/nVnv/t8V/HT+CzreroXaKYovBHRHEvesp59kDmS8aORDHTW/4lnpxp/QXf8e11jfqOQt+YxhB+J79IXTwrCpnx2YqUqqK+WxTXr1lmGlfkRsuqeNwWuZlTCh1l7+4mS+i6LvPHd8/deJqbMDgb2LQav73RjN+5OP/LI6P4hT0O6yd723QC6QXn93k9EcX7bLtq83mjMzy/+7xz2MYf7GA4jS/uAY/50swpRaLoHPK6exyM51iC/Aovzlm3yZuV4N//9kYzfo/xkLYZGcbP+ye97hi/C76/BbTuY93WfZIocj6bNLrl4EtF0ZfdN8brq42P2fuzmVN6pyu+EGyzqfsVu5CEPU+6S+3vFI9ZuNeJm/ErLP7bo43kt180D2/y8G8EHXkLffaYiPjXy0WRyu0aY22bFxMrNGzmlFWi+HOuo4CVFILheho7ovS2LvihIZScJx2nGb/06f53R0fys13oeTbToVFm3gjaa0Djs3siqi/vEkVqjKfHSpjGq0KjM27mlMWiWOFcKZFjz5NinjomZ9iMnzxLr7Icxm9voxJ/qPDZhrXxLlHc7gppYsWNRfju832PgtzFuoVT2mcH7VjNbJavG5fx+f3SGoD7BcM71xKM3WzjOJvBKT6Nz3qu63lM8RjfuFWlG7690YKfZ/UXPsfwi4QwdbG9hJ/32UvTmwNeJorUS9vgBW8N3NRjuxXt7U5pHWxbp8+XfX8ucBOxbWDbj+n4yg0/3WTLMb4tuJ3J94urxm8KJeJvkyut3t64nd+ttfv8xEbwo27zscu8XTwP3eg0u7zPpu1aHPXthdJ+0exzCxT3ptndKam7u98pFpSldfyCLHBRuvPjMlMaFl2wc69WliYrifdKfpKCNrCBKDaASkn2dUq6e/YLEZQUqHX8kjzwcfry4/NSFho81rQ9epJ7tbIsXVms9/GTlbOFFUSxBdXuotioEAOTfV2jTk1MpY51Yvo6fp24lJwGolhCSRAHTimAFpiM4XdcgcmuchPkqforRLEa2RMMIIqNamFMo25UmAHJjuBnJwr2cdltcmmfJHAzq77B/D6vXxxwkwfX4S2xjuDXsjw90/Z1S+fERMuN5OGUOpj9+ZHoZR7teslrarYxT3tz1lXEH7SGKDaq9P6NulFBBiXbnZ/t6nJ3dTQ5db1x1RHT9tjYfpd5DO3xqzu/HoXqdA6IYiPQcEod2O78sqL4ntfUiHx3frrqfpQ1RLFRdcApdWD78yvoPmeL9LtDrH/XPJt4VYT+/Kqy9+jIEMVG1QOn1IEdwe880RK+OpkrjxfE61crcyncGT6C3535H5kWRLERfTilDuwYfolHcgpv+Z70mhqRH8NPV+dPsYYoNqoJOKUOLPiBn46A3BqiKGfHWqJRs3iygeCXRcRGAD8WDxsIUWTxyAPhlHJ2ZAl+4KcjILeGKMrZsZZo1CyebCD4ZRGxEcCPxcMGQhRZPPJAOKWcHVmCH/jpCMitIYpydqwlGjWLJxsIfllEbATwY/GwgRBFFo88EE4pZ0eW4Ad+OgJya4iinB1riUbN4skGgl8WERsB/Fg8bCBEkcUjD4RTytmRJfiBn46A3BqiKGfHWqJRs3iygeCXRcRGAD8WDxsIUWTxyAPhlHJ2ZPlOfsfXBOfPYgrfEtTBSli/k1+iIAMOQRQbQYdT6sC+j9+2cdW8mO+2GO1xgQkdj1rr9/GrLWG7+BDFRmzhlDqwr+OX2o8lu0ajjhFn/Tp+XGE6h0EUGwGHU+rADuH3/ZhpClffdvuyiBfQhijqnGCQNUSxEfghjbpRWUYkO4ofdXnnxY0E2uXAdkWs3Lhq/Zplnsy82/elOIpf31K2ORtEsQ3Xl04UNIIhSHZYo/bd4O9i5sNdozGmaOOqbWxxmsxkxxcFhb/BZBi/G/I+OgmIYqMagFPqwI7k5xeM9XeMriQ1G1eRxWq+yxx1x3VMaqxH8qvJ5xPjQhQb1QqcUgd2JD/bhZ5nMx26vqUbV4XlVo5JhklVfh/JrzKrj4sOUWxUJXBKHdhh/GiyZabnCysFbbcLy12ZRmiq/D6MnzLfTzCHKDaqBTilDuwYfpGInWajuTI5W5pYWe08je8+z2abt+GMbw8bw+/2YgxJEKLYCDucUgd2BD/7sPWhy2xM6thlydZtRz+aZLETLZ8hgkj5G8HvksvLAmzdTZPNtft/AwqoupoEP/DTEdBZw//k/CCKcnasJZySxZMNBL8sIjYC+LF42ECIIotHHginlLMjS/ADPx0BuTVEUc6OtUSjZvFkA8Evi4iNAH4sHjbwIIr//v0z9OcP4nMbMPcD5/iEb8AH/owPWC308unF0P/GZz0BYoh/cgLgJ2dHluAn5xfq396Kw4PypP+2JZxSV//gB346AnLrUP8ginKOJ0s06hOSqgPgV4XrFBn8TkiKD0AUi1HVRYRT1vGKY4NfTKTuN/jV8QpjQxRDGjd+h1PqYIIf+OkIyK0hinJ2rCUaNYsnG/hKftFrfjOtp5gtaZsIr+TXBkV1qhDFamRlBnDKMk5Xsd7Hb1tc1i4IsZp1pZ393EKzI3b0ex+/K0/ofxyi2Ig5nFIH9nX8/IrdoQKmjumwFFu/jl9xydpHhCg2Ygyn1IEdw++4b/M0h5tYCcoDURRAG28CUWxUB2MadaPCDEh2BD+/TJi/2fO/XfHdeom+wfw+r4XTbWtwHd4S6wh+LcvTM21ft3ROPKd4I3k4pQ7mI/jFq2kXbVzly70tOjtihVm80eIrQfQJURRhyxs9olHns/nYGKP4rd/FLJ+P+Xw+ZrYLxdLWBPSvZuOqbbHZaMHanrBH8etZxlbngig2Igun1IHtz2+bPbbbkq5OCA93iqUbV/0E0XfDdSRk1v35yfL5RCuIYqNagVPqwHbnZydFovG/gyiWlOcZgkg57c6vBM9L4kAUG1UUnFIHtju/eKbYP4htd/YrKYsXxMU+o0jPKe5/JeY3x+nO7+b8j0wOotiIPpxSB3YEv3XZxhGnycyfxawVd4pupjm9/uY8YLJlBD9djT/HGqLYqC7glDqw4Ad+OgJya4iinB1riUbN4skGgl8WERsB/Fg8bCBEkcUjD4RTytmRJfiBn46A3BqiKGfHWqJRs3iygeCXRcRGAD8WDxsIUWTxyAPhlHJ2ZAl+4KcjILeGKMrZsZZo1CyebCD4ZRGxEcCPxcMGQhRZPPJAOKWcHVmCH/jpCMitIYpydqwlGjWLJxsIfllEbATwY/GwgRBFFo88EE4pZ0eW4Ad+OgJya4iinB1riUbN4skGgl8WERsB/Fg8bCBEkcUjD4RTytmRZX9+bpUc7St54auCduXuQUvl9Oenq+8nWUMUG9UGnFIHtj8/vSjuK21bIVyNXbm7eEEJHa/Yuj+/OAfv/Q1RbFR3cEod2P78tKLoVto+ritLx2YzYD2IAXfauvp+kjVEsVFt9G/UjQoyKNn+/Lwofs3yma2oTNNsjiLHwKAVdaZoPUYmeuug/vxal6hf+hDFRqzhlDqw/fk5USQh9Hd2e3fYFoXfuMrGpVW7v4uZ520Jsfmzp6WjUW/dn199Hp9qAVFsVDNwSh3Y/vz8nWI4MxJ1icOFY/fvrpx+PcV5287AmNV8F7rj/ImsjkiddX9+dfl7cmyIYqPagVPqwPbnlxLF8BitrD2b+fTnusz+TjGUVLvZFS1Y6289dUiqrPvzq8reoyNDFBtVD5xSB7Y/v1AAfd7DY5mNq5JjiqG9T7PPZ39+fcrV4ywQxUaU4ZQ6sP35pQQs6j6zRUrFTR1jE7ktsD+/27I+PCGIYqMqgFPqwPbn50QxfOD6ONGSL499LpFmoP1zinZMccyMdH9+eT5viQFRbFRTcEod2P78nCh+vtuufNNkSCDrhgPd5MpMtpu9E0gdC4l1f36SXD7TxtbdNNnMuf+3V6zeANVdycfM7uWqszs/O6aVZ+FnSX3F28/Mw3gjXl3rzi9XoS8LfyU/v63sdlGxM/kDuPu2Qad+mSi68ZpRjzzk6qqnU9JWnO7upEwU5+X725OYHi1hCrN3IX2X8EN3UAtrwyRXHNSTX3GmXhTxffy24YvPzzeXTr4WV+trRZHGb+YPiUFeCOJC9/jdyynd+7Uf99BwAQvLrbhPmJoooGPtmffi18MXRpzjdfzW5dyWU8c6wHynKFpYNKCdANkBWskpujtlIQsSxUxv+Ve85GMmv+CW37rza1mYAWkP4Xfyl9RFtQJGoU9XpFgU9YWiGDw6MQhaCdnuTlnEYmNn77DzkwG26zzo1bXu/Eoq9UVxRvELeyLWf/YrsB/u2vzOT0Yx74vvQzedub9PFOlq5Me0ioSgM9HtdN2dsohFMG5j88kvb+WccjIjXl3rzm+MmzQ76zB+3g/pHfBY8PZXI9dgTPsKgRPRUW8DeX4vmGiJbsd9BXAzBVfMGx/3UBuf5pe8lIW1S3ep/Z3iEW8fZ+3O70fyf/FtJL/9YnoYu+ZfkzxC3x6L2u8yj6GtfxE7z+/xorg3Un/FsVej2Sxffga1NcRU+h5qKqzJMakomuhCE2buNEZEgcHwRRj35u/d+d2c/9HJjeRnu9DzbKaDqGVek9yB/QTxeDHeIzT/Quw8v8eLIsH2GT59HiqgObfsCTzUbMS7IpSIYkrkWLuUYKaO3VWIXzrd+f1O/b/4NozfPrwl8ZPxgkiV77XFfvfeEB70xx75yTbosTnu6ZQr3TmHd83r7xr7pQVT/RjsdldIV3AbZT2PKR7jG7ek/oBX13ryG+spbc4+hl8khKmL8GVxvSAuwXjjNvZ4adMmINS/x98pnhBAFEm19iubr8zfA+2b6IUD3uvXLNS18W8NfMIHsRPxt3UBe7+6NqZRnzys7sBD3sigTI/gZ3tyUY8tdSwF1Y9Der8MP3tPtvhzW44+s+FBfwyfdQSI4SP+0YVjv1MsyFFt/IIkJVEew68488HM/jbmPeqNDMry+/gVg24eMdS/vRWHB5vn4H96gmc4JXVJ/KotJaBr45ekKYvzDH4VeU/1WlLHKpLURH0dP01hb7YN9Q+ieCNcOKUO5hh+a7BplVsl56spBkRRQ2+YLUSxEfoxjbpRYQYkO4KfHf/ahxq28dV9jMxNIvgG8/u8Xi/RjZNdh7fEOoJfy/L0TNvXLZ0Td4o3kodT6mD250eil1nowj8fe/i8KqcT0d6TBD43/fn5M7//E6LYqA7hlDqw3fnZri53V0fjrdcbVx1L6x8vUXW+j0lW/urOrzJ/T44OUWxUO3BKHdju/LKi+J43Moh8d3666n6UNUSxUXXAKXVg+/Mr6D5ni/S7Q/w9Pp81ahKhP78mxRiSKESxEXY4pQ7sCH7niZbwbaBcebwgjn8jg3I6gl+O0FvCIYqNagpOqQM7hl/ikZzCW74nvZFB5Mfw09X5U6whio1qAk6pAwt+4KcjILeGKMrZsZZo1CyebCD4ZRGxEcCPxcMGQhRZPPJAOKWcHVmCH/jpCMitIYpydqwlGjWLJxsIfllEbATwY/GwgRBFFo88EE4pZ0eW4Ad+OgJya4iinB1riUbN4skGgl8WERsB/Fg8bCBEkcUjD4RTytmRJfiBn46A3BqiKGfHWqJRs3iygeCXRcRGAD8WDxsIUWTxyAPhlHJ2ZAl+4KcjILeGKMrZsZZo1CyebCD4ZRGxEcCPxcMGQhRZPPJAOKWcHVm+k9/xNcH5sCmYjket9Tv51ZayTXyIYhuuL23UjWAIkn1fo942rpoX890WoT0uMCGAoDB5Hz9FYW82hSjeDNQnB6f0JGSfr+OX2o8lu0ajjE2J1ev4lRSqUxyIYiPQcEod2CH8Tpu3uy0F9m1aaosEUawl9oj4EMVG1TCkUTcqy4hkR/GjLq/fV8UuB7YrohNI32B+nxdbGKxfs8yTmXf7vhRH8etbyjZn83VLqWPjqhsZwyl1MIfx893g72LmKRK8w4ZVq1nt77ic29jiRFuk0vhiHN7n9zB+fYrX9CwQxUZ44ZQ6sCP5+QVj/R2jK0nNxlVksZrvMpspFlYdlmLrkfyKM/nQiBDFRhUDp9SBHcnPdqHn2UyHrm/pxlVhuZVjkmFSld9H8qvM6uOiQxQbVQmcUgd2GD+abJkXus8zn2kyB13kirTbhZEq0whNld+H8VPm+wnmEMVGtQCn1IEdwy8SsdNsNFcmZ0sTK6sdR/Td59ksA8YVx/Dj+LwnDKLYqK7glDqwI/jZh62jW8PUscuSrduOfjTJYidaPkMEkfI3gt8ll5cF2Lqb3LwzZp9vrDw4pQ4m+IGfjoDcGqIoZ8daolGzeLKB4JdFxEYAPxYPGwhRZPHIA+GUcnZkCX7gpyMgt4YoytmxlmjULJ5sIPhlEbERwI/FwwayougD8bkNnPsBdHy6iQRwAIf/sQ+Qck7//v0z9AcRhAjCB+ADf90HrBaG95R0AP/kBMBPzo4swQ/8dAR01t7//gMMQobzpyq+ewAAAABJRU5ErkJggg==;" parent="1" vertex="1">
          <mxGeometry x="420" y="119" width="198.41" height="221" as="geometry" />
        </mxCell>
        <mxCell id="yl7WPXbBKKlvr1R5QcPl-8" value="1" style="ellipse;whiteSpace=wrap;html=1;aspect=fixed;" parent="1" vertex="1">
          <mxGeometry x="780" y="150" width="40" height="40" as="geometry" />
        </mxCell>
        <mxCell id="yl7WPXbBKKlvr1R5QcPl-21" value="&lt;span style=&quot;font-size: 19px;&quot;&gt;E2_Pruebas de software&lt;/span&gt;" style="text;html=1;align=center;verticalAlign=middle;whiteSpace=wrap;rounded=0;" parent="1" vertex="1">
          <mxGeometry x="920" y="89" width="230" height="30" as="geometry" />
        </mxCell>
        <mxCell id="yl7WPXbBKKlvr1R5QcPl-22" value="&lt;div&gt;Complejidad ciclomática: aristas(línea)-Nodos(circulo)+2&lt;/div&gt;V(G)=(10-8)+2=4&lt;div&gt;Complejidad ciclomática: Nodos Predicados(circulo con dos salidas)+1&lt;/div&gt;&lt;div&gt;V(G)=(3)+1=4&lt;/div&gt;&lt;div&gt;V(G)=Numero De Regiones = 4&lt;/div&gt;&lt;div&gt;&lt;br&gt;&lt;/div&gt;" style="text;html=1;align=center;verticalAlign=middle;whiteSpace=wrap;rounded=0;" parent="1" vertex="1">
          <mxGeometry x="930" y="490" width="470" height="100" as="geometry" />
        </mxCell>
        <mxCell id="yl7WPXbBKKlvr1R5QcPl-31" style="edgeStyle=orthogonalEdgeStyle;rounded=0;orthogonalLoop=1;jettySize=auto;html=1;exitX=0.5;exitY=1;exitDx=0;exitDy=0;entryX=0.5;entryY=0;entryDx=0;entryDy=0;" parent="1" source="yl7WPXbBKKlvr1R5QcPl-25" target="yl7WPXbBKKlvr1R5QcPl-26" edge="1">
          <mxGeometry relative="1" as="geometry" />
        </mxCell>
        <mxCell id="yl7WPXbBKKlvr1R5QcPl-25" value="2" style="ellipse;whiteSpace=wrap;html=1;aspect=fixed;" parent="1" vertex="1">
          <mxGeometry x="780" y="280" width="40" height="40" as="geometry" />
        </mxCell>
        <mxCell id="yl7WPXbBKKlvr1R5QcPl-26" value="3" style="ellipse;whiteSpace=wrap;html=1;aspect=fixed;" parent="1" vertex="1">
          <mxGeometry x="780" y="360" width="40" height="40" as="geometry" />
        </mxCell>
        <mxCell id="90rEh2KffNQOqLEjoO5k-5" style="edgeStyle=orthogonalEdgeStyle;rounded=0;orthogonalLoop=1;jettySize=auto;html=1;exitX=0;exitY=0.5;exitDx=0;exitDy=0;entryX=1;entryY=0.5;entryDx=0;entryDy=0;" edge="1" parent="1" source="yl7WPXbBKKlvr1R5QcPl-27" target="yl7WPXbBKKlvr1R5QcPl-26">
          <mxGeometry relative="1" as="geometry" />
        </mxCell>
        <mxCell id="yl7WPXbBKKlvr1R5QcPl-27" value="4" style="ellipse;whiteSpace=wrap;html=1;aspect=fixed;" parent="1" vertex="1">
          <mxGeometry x="940" y="360" width="40" height="40" as="geometry" />
        </mxCell>
        <mxCell id="yl7WPXbBKKlvr1R5QcPl-30" value="" style="endArrow=classic;html=1;rounded=0;exitX=1;exitY=0.5;exitDx=0;exitDy=0;entryX=0.284;entryY=-0.015;entryDx=0;entryDy=0;entryPerimeter=0;" parent="1" target="yl7WPXbBKKlvr1R5QcPl-27" edge="1">
          <mxGeometry width="50" height="50" relative="1" as="geometry">
            <mxPoint x="820" y="300" as="sourcePoint" />
            <mxPoint x="950" y="430" as="targetPoint" />
          </mxGeometry>
        </mxCell>
        <mxCell id="yl7WPXbBKKlvr1R5QcPl-34" value="7" style="ellipse;whiteSpace=wrap;html=1;aspect=fixed;" parent="1" vertex="1">
          <mxGeometry x="940" y="450" width="40" height="40" as="geometry" />
        </mxCell>
        <mxCell id="yl7WPXbBKKlvr1R5QcPl-36" value="" style="endArrow=classic;html=1;rounded=0;exitX=0.5;exitY=1;exitDx=0;exitDy=0;entryX=0.5;entryY=0;entryDx=0;entryDy=0;" parent="1" source="yl7WPXbBKKlvr1R5QcPl-27" target="yl7WPXbBKKlvr1R5QcPl-34" edge="1">
          <mxGeometry width="50" height="50" relative="1" as="geometry">
            <mxPoint x="830" y="310" as="sourcePoint" />
            <mxPoint x="961" y="369" as="targetPoint" />
          </mxGeometry>
        </mxCell>
        <mxCell id="yl7WPXbBKKlvr1R5QcPl-40" value="8" style="ellipse;whiteSpace=wrap;html=1;aspect=fixed;" parent="1" vertex="1">
          <mxGeometry x="840" y="560" width="40" height="40" as="geometry" />
        </mxCell>
        <mxCell id="yl7WPXbBKKlvr1R5QcPl-46" value="" style="endArrow=classic;html=1;rounded=0;exitX=0.5;exitY=1;exitDx=0;exitDy=0;entryX=0.5;entryY=0;entryDx=0;entryDy=0;" parent="1" source="yl7WPXbBKKlvr1R5QcPl-8" target="yl7WPXbBKKlvr1R5QcPl-25" edge="1">
          <mxGeometry width="50" height="50" relative="1" as="geometry">
            <mxPoint x="880" y="180" as="sourcePoint" />
            <mxPoint x="960" y="370" as="targetPoint" />
          </mxGeometry>
        </mxCell>
        <mxCell id="90rEh2KffNQOqLEjoO5k-1" value="5" style="ellipse;whiteSpace=wrap;html=1;aspect=fixed;" vertex="1" parent="1">
          <mxGeometry x="750" y="440" width="40" height="40" as="geometry" />
        </mxCell>
        <mxCell id="90rEh2KffNQOqLEjoO5k-2" value="6" style="ellipse;whiteSpace=wrap;html=1;aspect=fixed;" vertex="1" parent="1">
          <mxGeometry x="820" y="440" width="40" height="40" as="geometry" />
        </mxCell>
        <mxCell id="90rEh2KffNQOqLEjoO5k-3" value="" style="endArrow=classic;html=1;rounded=0;entryX=0.5;entryY=0;entryDx=0;entryDy=0;" edge="1" parent="1" target="90rEh2KffNQOqLEjoO5k-2">
          <mxGeometry width="50" height="50" relative="1" as="geometry">
            <mxPoint x="800" y="400" as="sourcePoint" />
            <mxPoint x="970" y="460" as="targetPoint" />
          </mxGeometry>
        </mxCell>
        <mxCell id="90rEh2KffNQOqLEjoO5k-4" value="" style="endArrow=classic;html=1;rounded=0;exitX=0.5;exitY=1;exitDx=0;exitDy=0;entryX=0.5;entryY=0;entryDx=0;entryDy=0;" edge="1" parent="1" target="90rEh2KffNQOqLEjoO5k-1">
          <mxGeometry width="50" height="50" relative="1" as="geometry">
            <mxPoint x="799.66" y="400" as="sourcePoint" />
            <mxPoint x="799.66" y="450" as="targetPoint" />
          </mxGeometry>
        </mxCell>
        <mxCell id="90rEh2KffNQOqLEjoO5k-7" value="" style="endArrow=classic;html=1;rounded=0;exitX=0.5;exitY=1;exitDx=0;exitDy=0;" edge="1" parent="1">
          <mxGeometry width="50" height="50" relative="1" as="geometry">
            <mxPoint x="959.66" y="490" as="sourcePoint" />
            <mxPoint x="860" y="560" as="targetPoint" />
          </mxGeometry>
        </mxCell>
        <mxCell id="90rEh2KffNQOqLEjoO5k-8" value="" style="endArrow=classic;html=1;rounded=0;exitX=0.5;exitY=1;exitDx=0;exitDy=0;entryX=0.5;entryY=0;entryDx=0;entryDy=0;" edge="1" parent="1" target="yl7WPXbBKKlvr1R5QcPl-40">
          <mxGeometry width="50" height="50" relative="1" as="geometry">
            <mxPoint x="840" y="480" as="sourcePoint" />
            <mxPoint x="840" y="530" as="targetPoint" />
          </mxGeometry>
        </mxCell>
        <mxCell id="90rEh2KffNQOqLEjoO5k-9" value="" style="endArrow=classic;html=1;rounded=0;exitX=0.5;exitY=1;exitDx=0;exitDy=0;entryX=0.5;entryY=0;entryDx=0;entryDy=0;" edge="1" parent="1" target="yl7WPXbBKKlvr1R5QcPl-40">
          <mxGeometry width="50" height="50" relative="1" as="geometry">
            <mxPoint x="769.66" y="480" as="sourcePoint" />
            <mxPoint x="769.66" y="530" as="targetPoint" />
          </mxGeometry>
        </mxCell>
        <mxCell id="90rEh2KffNQOqLEjoO5k-10" value="F" style="text;html=1;align=center;verticalAlign=middle;resizable=0;points=[];autosize=1;strokeColor=none;fillColor=none;" vertex="1" parent="1">
          <mxGeometry x="760" y="330" width="30" height="30" as="geometry" />
        </mxCell>
        <mxCell id="90rEh2KffNQOqLEjoO5k-11" value="T" style="text;html=1;align=center;verticalAlign=middle;resizable=0;points=[];autosize=1;strokeColor=none;fillColor=none;" vertex="1" parent="1">
          <mxGeometry x="870" y="330" width="30" height="30" as="geometry" />
        </mxCell>
        <mxCell id="90rEh2KffNQOqLEjoO5k-12" value="T" style="text;html=1;align=center;verticalAlign=middle;resizable=0;points=[];autosize=1;strokeColor=none;fillColor=none;" vertex="1" parent="1">
          <mxGeometry x="820" y="400" width="30" height="30" as="geometry" />
        </mxCell>
        <mxCell id="90rEh2KffNQOqLEjoO5k-13" value="F" style="text;html=1;align=center;verticalAlign=middle;resizable=0;points=[];autosize=1;strokeColor=none;fillColor=none;" vertex="1" parent="1">
          <mxGeometry x="750" y="400" width="30" height="30" as="geometry" />
        </mxCell>
        <mxCell id="90rEh2KffNQOqLEjoO5k-14" value="F" style="text;html=1;align=center;verticalAlign=middle;resizable=0;points=[];autosize=1;strokeColor=none;fillColor=none;" vertex="1" parent="1">
          <mxGeometry x="900" y="380" width="30" height="30" as="geometry" />
        </mxCell>
        <mxCell id="90rEh2KffNQOqLEjoO5k-15" value="T" style="text;html=1;align=center;verticalAlign=middle;resizable=0;points=[];autosize=1;strokeColor=none;fillColor=none;" vertex="1" parent="1">
          <mxGeometry x="930" y="405" width="30" height="30" as="geometry" />
        </mxCell>
        <mxCell id="90rEh2KffNQOqLEjoO5k-16" value="" style="shape=image;verticalLabelPosition=bottom;labelBackgroundColor=default;verticalAlign=top;aspect=fixed;imageAspect=0;image=data:image/png,iVBORw0KGgoAAAANSUhEUgAAAl8AAAFXCAYAAACcBCvtAAAAAXNSR0IArs4c6QAAAARnQU1BAACxjwv8YQUAAAAJcEhZcwAADsMAAA7DAcdvqGQAAD8hSURBVHhe7d2/eqLM28DxO++xSIo8OQI8At0m1bbpsIxNupTbpcFSu7RbpVk4gngE/lJEzsV3ZhgUEBX/4aDfz3WxawgDyMDMzcxA7hbK//73P/nvv/8EbiJ/3Eb+uI38AeCaOzUt0o8AAAA4t/+z/wMAAKABy5avxYIGMFfd3d2RPw4jf9xG/gBwDS1fAAAADSL4AgAAaBDBFwAAQIMIvgAAABpE8AUAANAggi8AAIAGNRN8JbGMBl3p3t2Zx77N1O3KYBRLYhdpWjxS+zMYXWz7zogHqzxZmwYS28XcFMtA7+fA7b08iU35pK+j+DJncaKuIffPEdyqRF0z3W7+WhnI6MBrJR7odRTP9Xp1yA2VUdjL+YOvZCRdry/DifochBJFkZpCCR9FJsO+eOqCaP60VJfL91SmM5G5nXPr/FDnS3l6Fc/+fh9JcvMh7dkU8ymUQKYy6XvSHXHMgYy+MfD6ptKRcHmtTGSorpXTxEHUITiefvvg4jyiRWDWHyyiuZ2VFwVm2xJEdgaqnC9/FJsHJ8uCU69vK3t+Xfj8OWv+ZDYe1/ki9O01Zuc0ZR76F9nuvhrJHzjEXhN+qD7l2fJibf5uUXDoNeZGGQX3nLXlKxn9Ufca6pSNxtLrpPMKeq+iLhKRySddF8BBOvLrt76IZvJD4xegzHWjlMjjvbo68nryqlvB3n7Zn4HLOWPwlci/v/oKCOSpl85Z15GXr4W6LVXBmZ2jJfGo2Fd/tz6uZTXeJDHjybJll33wSSyD3Dq6pbZm04ffXfXXb15fxbi0ZFRYtxlLcOUVX53jY46paepX8XTf/t4emGX6LF9y+VEnv7VkNFiNG9Td1RuOed31XatNx7pq3Eo2JmWt27J0jne3HG+18M5r5tbzBE3y5MHc1P9ZG+PV6fWk1+sUgrJDz81yHaJRRqGuMwZf9u7Df9hv3JAq9J/7Q3XXEsl8PjdTFOjKvKqvfiZ/us/y/fCWjoEJfZlOhmYcWdf7I/I7HRsTqvTTSb8ifdlE+vn1BXp9fXnOV0x64LM3VEuGEpn9U+vXYwm8uxrrd9fsJ5Y4Lk1rZcH249Mbq+OhM0sJojTvPl7yxZxK//xHZo/q2L3as6Jufqvj7umBg3rcoF7m7UH+PPfVGkv2On+uQXaT8yj3hdv8imNdlzqGXXWOz5bHMFJrV+vzyoGbtroGzbE212BfvPzBvrk8wWWpm/qPUNSZaMZ4LR/uqoptTnluUkZhT2caE3F4/7o6Ge2nTLouP1zNT8eb+IvcLCU3/qUwfz29OtkL+1a9vnJ//aaxBJvmn8Z58sfKxt1VTLuPd8V4hg1jk6rTp3bn94bjOw8X6gZ3bTxFnfPnlPT3PTt7XP0wWqjA107hQsW/dv7qu2061uacXxu3svvaSK0vt307xflN50leI/kDB80X6mZw4dtrxFwnwXoZXefcrLp2iteJ22UU3NPMqyb21Omkt/D6qbnEtML8qPvrKuW7fUu3tlXMn37vei5lw/qWNo0l6Mj9o/pv+t3aJ19U2aBrqML0VWi10nYdn12q0+/O7w3HvXOv1riu/vnTPtNhX/r9bNItsL7Ku/kJ8yqWT3Wr7qtjrZsKzDE0k5iunPVraH07vSdVjchU8otec57AVR3p9MbyZYa26NalrGek2FV4mnOTMgr7OWPwZfvddwYkacG+lBur5T0/y/vnp3x+/rW/dIP/sN6N45kvy6Dnve2R31XHfU0Lzp9jrAXJX18yrnya5Tim69DzclNfhrpymf2sjefa6crzBG3Qkd74S+ahvoP4K/+yk/jE5yZlFOo6Y/CVPYU1kc+N/diJjLq6YM/GkqifTR+57jO3Fct4rKa3yruHS6lqQZuntz1Htgzdmv3ye3fLZTvOnzbww3kxyFsGey/FO/udyBM0zAxmrx7A3km7KGyr7OnPTcoo1HXWbsfOy5voDohJf8NTH/F7ejcdPNmnHdOmW//3r+pXU1ycbc1bu/tP5Ee3Ge/7cME18h5EH6J66ub3puNe5vr546Ck3N2RHuvp33/rx1p3kdiPK+utvbHut1RnQdoIQJ6gYfq8m05l8rkeCCVpQX2Gc5MyCvs585ivnozn+qkT/aRU+qcY0ifpRumj6fq1BH4g0Th70YQt+IfvKljT3ZG6P1w/8p6+L+zyOvLypsLJaTpuIN3H2LTe6SAyeNu3VcAdlU87qoh5e0Gy2eRzlOaf/bla3fxeHffngX5qabVcZeDg7PlzWelYrIn8ya5D/Vj881DUqZtjnxQzxzo7xxPzp1TuPK/45K8xleFz9jRZulz6YvE3SYehkSdoWOdFdHGh7vrNK1JGtjzTdY6XFtR7n5vpsJKJfKrzv7pMo4zC/s7/NNA8WoSBnz71kU2+vwjCaO3JE71s9gSXntKnU9InSdaftCo/ubXpqcP0SZL8EyflJ7qq17eezpivnjJLv0tQ+RTfqehtnM2Wpx3zx2Of4zMPg2VeZ3lWnV6pmd9afr36mEdzm9/57e+xvlPR2zm7DU+RVtl4rNVxiNR1WDw2aR6uHZvyOS76ei3nh93O2jEvXdcXyJM8vU3cnvKTjpV1Tu1zU82z1042v+qpYFfLKLjnzp4AZjwH3KQHZpI/7iJ/3Eb+AHCNk6+aAAAAuFYEXwAAAA0i+AIAAGgQwRcAAECDlgPuAQAAcH487dgCPK3lNvLHbeQPANfQ7QgAANAggi8AAIAGEXwBAAA0iOALAACgQQRfAAAADSL4AgAAaBDBF5yRxCMZdO/MqwHM1B3IKE7sbwEAuA4EX3BDPBCvP5SJBBJGkURRqD5NZNj3ZBDbZQAAuAK8ZLUFrv8lkYmMup4Mp4FEi7H07FwVkcngri8TP5T514t07FzX8BJPt5E/AFxDyxccMJfvqfoveMoFXlpPngL13/RbLQEAwHUg+MLh4oFpVSh0Cxbm6Rat3Biu8tQdqSW0nowXC1mMi6GXTv8zU//5D+KlMwAAaD26HVtAByqu5k88uJP+LOsWtN2Hj9EykErieEurlSe93pbOxGQkXW8oEs7l68XVTke6tVxH/gBwDcFXC7hdeaTjsmYqQPqQZ/GGj6VxW4faNA7MPVTubiN/ALiG4KsFnK88dFdjf2I++oVWqkTi0bt8ftsfyx6e5PWlVzGQPgu8fAnnX+Jwo5dB5e428geAaxjzheP1nkSPixf171spUvr5nslstmH6/rFL5bUr8AIAYF+0fLWA63fu6bivwLyXa5Ib77W/WAbdvkxaFnjRsuI28geAawi+WsDpysN0Oc7SYEnSAfKP0UL2j7+ywCuQaD6WbePwXUPl7jbyB4BrCL5awN3Kw74ENVi1dplWsMmeg+QTtR5PrUd8CcI3ebq383M8rycdRwMyKne3kT8AXEPw1QKuVh7VgdZ6QLZTbsD+JsFBrWnNoHJ3G/kDwDUEXy1A5eE28sdt5A8A1/C0IwAAQIMIvgAAABpE8AUAANAggi8AAIAGEXwBAAA0iOALAACgQQRfAAAADSL4AgAAaBDBFwAAQIMIvgAAABpE8AUAANAggi8AAIAGnTf4igfmj9p2R4mdsVsSj2TQvTPpzNQdyCiumT6JD0ubjKSbpSlNg9gus41Kv7bd+l8Z2rF5gO3stbhp2nqNHpMWLZHISJdh5mLLf7a2ngMDyZaMB8WfXRaPutIdjNS3vVY78vRUKLsPcqbgKzEn9l1/Yn+uSV3gXn8oEwkkjCKJolB9msiw7+3ORH0CeP3D0hq+BKFOV5xePfvrTcx2K/bZ6xKA7e3APEBtfsXx1dPbr45dYrNj0uI6VJ8Dr9K+S1QVzt9Tmc5E5nYOjkHZfYiFnk4mCsz69OQHwcLX/4dz+8tt5ovQ1+mCRWTnpKJFoNfnh2qJzaKgKq1d54606T77i1q7WVK9XbvPQXHuoU6aP646Ig8urRX5Y6/Lg07JY9I64Caun6PZstJkcvq5UG7XPAeqy0Ncxo483cLkY90LvsVl9yWdoeXrwUTA8/lCvl4f7Lw65vpGRF23T9JLZ1g9eVKRjEy/t9yhxPKpG9nW0u7jUe4PvYH3H0p3fp48qKgT+zoiDwAcoSP3j7oo0yVZ+hlt12SeUnbv6/TBV+9Fxi896eydET0Zq5vUxbgcPiXyM1P/rQU4eZvS2oDu8V6depslZgOH8XSUtRYYpttNT/prlaRjCLrrYyYS3eV8p7td7TIVYwHMlEt7TB4AOJ73EMjv+9znM3Unp+WDHhemyoeB/pyWB8vxV6Wxu92KcSN6bHC3ULZ0ZZAf32vHqBWSluaZ8Wn5MugE+6WHoRw0/reUrqvSrQ9XLu6X/s56H7atvok8pew+3Pma5efhHt2OG+y9jvliHkWLKAoXgely3N0EPg99s1wYpt2k6THxF0FUZ5vRcjvhntut62z5cyRz3Naam4tdvWlebJpWCY/Lg8tyNX8KbLeRH1bnw9ajfExaB7Qif1y37RzInQB1uh2zcsP31fWdrc/MS8tNX1/3dn5o1lfq7szqBDVzPlfnn5qiIE2fX87sy3LISb4LLlX8/Qn2yx4jvc7I7JdaTm+zvFzZ2vexdUrpOKbHVpW3+prTy6nt7Vc3bqOOof6+dsrK8Py8TVtpc9l9Seo4pQfrLI4OvuwFs9cYAjveKjsB1MWya+vZSe0H2clmA6ia+55dBNmxPPWJd7b8OVp6rAvH6MA8PzYPLsnd/MnJKobKacf1dUxaB+j9xJG2nAP56zO9jusFX8XLOlfWF+ZXlDGKDj6KqpZbzUu3WdyvTcHXYftVvOlc2TR/pbwfqQ3rL0dxOgizH49iy+2q/E2nzWO62lx2X5I6PulBOoujgq/spN+c6bssg6Kttx2b5C46O6dKesdVDLbm6uQz3/ug7a47W/6cwPYCTN1NqbuhINgw7QyM6+XBpbmcP0u28jzolDwmrQNakT+uq3kO1A++ystsClLSIGRTGZ62AKUVfmVdkwsay7+rLrsO3a/N+7n9mNggS6VLW72yybY+5daX7p9aVrcyqfqm9E1PyuzzhmNeTzvK7kty9CWreqyQJ8OpL+H8S14O7Kbu9Mbyoc4Amfw54LUPHfn1W6WVmfxsSpuM5M9kqq7LDxn3VjvZ6b2Y7U4P2m679PTTENO/8s98z0T+/dWD3X5LNrTg53sms9mG6fsnXWijGnkA4Lbkxl55z8/y/vkpn59/7S9Lek+iSiglkLdDK5I9VI3zNeOCd5Rh00lfPM/LTX1V/6lfzH6WY7o6L1+ibuzlUa1Lv0LJM2PDRo6+U42yexcHgy99Ye0ZeFUNrrQ65hGPqXxvelRSv6dLn8RHREmPFY95pNu9Ab1XCf2pDN/1wbcPGvz+ZR9w6MjL+Eu+vjZM45d0uRPkAYBboG7Mn/X7HEOJ5gtZqHJkPB6r6U0FJevigVrWDyTwJ9KvqiBObFpR0czTp762Pg3oh3PdPLs+fdky0tI39mP1nfXvdCAm06H0Kx56agxl98EuGHwl6gam/KSGDrzUxTIN1IW1LfAqpbV3N5PP9YsrNu+g8GV1Q1JK2/klOkCf/v1X2pf1Vpzqfd623Vtg73AmnxLHn6pQ9Pd/omavPMB5VZ/jgBtWN3i5zoZq6qa8P1E38R8qOPsIxZ/0a75w+xD29UK5lqrUrqf103TrZZ+SqGvRftTridV1mX8CUgdib7ri2/oapsN4r5FEdd6QStl9FNOPfErLJ9zs0w+rgXirfuqs/3rZr6yf8DD7snqipDzNbeK1tEqxPzxdPrRPwFQtV+jPzsYFLNOuBgzmF6u3XZ3WzssnPoJel9PygzXXxkbUVDMPXOR8/mg1x+xsuz5cz4dNWpE/rrPnwK4nXrPzJwg3j0lKlzl0bFVuLFE2Pipf5i7Hda2PwSqPvTrtmC9lWYap+i4/bkvN23rtZGOjdT1pv1P2lOXq+2T7kfveKt3aPlxCi8vuS1LHJz1Ip5NdHFVT7sRWGWYq7OykzjJwy7TMyHJaywywz29bPzKcGwhvbEy7OmHStPpEqpu2xnaPoNfptlWerw143UOtPHCQ+/mjqHNU7+fOwrDqHK+b1lGtyB/X2XOgesoHLKossDe9m8qCo4Oc5asY0kkHLSoUMemzbVYPci+u6+TBl6YDonIZVn0YisrpTCNEKaEO5rIGBTul3/3y2lp2X9KdPVi6dNL/NUq/5O7Pw1y+DhgI2ca0h9Lj2S6RP/vQx8U08R/xgERbtSF/9nGJc/ycri1/ALTfxcZ86bcJ92eHPYHSxrTXLfvzTm83F3hdG85xADi/i7V86UG90usVnuSoq41pj+H0nbv+E0LvngxV8BVEC1n7C0834JpaVi51jp8TLV8AXHPRbkfU427lEcvgTj/2LeKH19NNtS8qd7eRPwBcQ/DVAlQebiN/3Eb+AHCNo2+4BwAAuE4EXwAAAA0i+AIAAGgQwRcAAECDCL4AAAAaRPAFAADQIIIvAACABhF8AQAANIjgC+5IYhl078xLMc3UHcgoTuwvAQC4DgRfcEMykq6n/1RRIGEUSRSF6tNEhn1PBrFdBgCAK8CfF2qBW/jzKPHgTvqTQKLFWFZ/mzuRUdeToYQy/3px9o898+dr3Eb+AHANLV9wQCyf+q9zB0+5wAsAgOtE8IUjxDLIxmcVpq6MzFAt3XJV9Xs7dUdqCa0n48VCFuNy6DWX76n67/He2VYvAAD2RbdjC+hAxdn8SRIbQGlzeX/W47ZW3YRJHKu5m3jS65XDKrW+eK7S/Mjnn6EZAxZ95bsi3eN0/oD8AeAcgq8WaEvlkYy64g0fS+O29qVb03QAp/kShG/y+tJzuuWLyt1t5A8A1xB8tUArKg/ztOJQHqOFrHoPE4lH7/L5bX8se3jaGlgl8UCe+xOZBlFFl6Q7qNzdRv4AcA3BVwu4X3nY1qq1ICmR0eBZ/s7sj2WPv+VjvP0pxrQ1TSScf8mLo81fVO5uI38AuIbgqwVcrzyqXxOxh3ggd/2JBIVWM2vb7xxB5e428geAa3jaEcdRwVF/4ks4P2KcV+9JAvXf5HP9baqxeQeFLw9e+jMAAG1Hy1cLOHvnbsd5SRDJx2sxOup09usjTLsXp+L7gfx+e5J7Ne/n848MJ1OzfsZ84VDkDwDXEHy1gLOVh+0SrHJIN6EZYP9nIlP9bi/N9yV4+1DrcflZRyp315E/AFxD8NUCVB5uI3/cRv4AcA1jvgAAABpE8AUAANAggi8AAIAGEXwBAAA0aDngHgAAAOfH044twNNabiN/3Eb+AHAN3Y4AAAANIvgCAABoEMEXAABAgwi+AAAAGkTwBQAA0CCCLwAAgAYRfMEZSTySQffOvBrATN2BjOLE/hYAgOtA8AU3xAPx+kOZSCBhFEkUherTRIZ9TwaxXQYAgCvAS1Zb4PpfEpnIqOvJcBpItBhLz85VEZkM7voy8UOZf71Ix851DS/xdBv5A8A1tHzBAXP5nqr/gqdc4KX15ClQ/02/1RIAAFwHgi8cLh6YVoVCt2Bhnm7Ryo3hKk/dkVpC68l4sZDFuBh66fQ/M/Wf/yBeOgMAgNaj27EFdKDiav7Egzvpz7JuQdt9+BgtA6kkjre0WnnS623pTExG0vWGIuFcvl5c7XSkW8t15A8A1xB8tYDblUc6LmumAqQPeRZv+Fgat3WoTePA3EPl7jbyB4BrCL5awPnKQ3c19ifmo19opUokHr3L57f9sezhSV5fehUD6bPAy5dw/iUON3oZVO5uI38AuIYxXzhe70n0uHhR/76VIqWf75nMZhum7x+7VF67Ai8AAPZFy1cLuH7nno77Csx7uSa58V77i2XQ7cukZYEXLStuI38AuIbgqwWcrjxMl+MsDZYkHSD/GC1k//grC7wCieZj2TYO3zVU7m4jfwC4huCrBdytPOxLUINVa5dpBZvsOUg+Uevx1HrElyB8k6d7Oz/H83rScTQgo3J3G/kDwDUEXy3gauVRHWitB2Q75QbsbxIc1JrWDCp3t5E/AFxD8NUCVB5uI3/cRv4AcA1POwIAADSI4AsAAKBBBF8AAAANIvgCAABoEMEXAABAgwi+AAAAGkTwBQAA0CCCLwAAgAYRfAEAADSI4AsAAKBBBF8AAAANIvgCAABo0HmDr3hg/qhtd5TYGbsl8UgG3TuTzkzdgYzimumT+Ki0o0F3lfauK4O6+51U7HP9rwxNHcPu8tgXp0Fsl8Hh7LW4aaq+RhMZ5c/rqqk7Ukuh/Wxem4st/9naev4MJFsyHhR/dlk86kp3cM3n7448PaVj6s8bdabgKzEn9l1/Yn+uSV3gXn8oEwkkjCKJolB9msiw7+2ugHXl7fUPS6uKioFKO1S7G4Q6bSRhIDIZersDR7Pdin32ugRge/OXxz8/vXr21ziaX3F89fT2q2OXyOvIr7fccqFv5hbW8fZLLYVbUX3+vEr7LlFVOH9PZToTmds5ONQR9eeNW+jpZKLArE9PfhAsVHG98MO5/eU284Uq21W6YBHZOaloofJxoa56tcRmUVCV1q6zVlp/Ud7N6nUWVS9j9znYlrK+k+aPq8x5s54HbdCK/LHX5VGn5CnWcQE3cf0czZaVJnPTz4Vyu2be1ykz0ZQdebqFyceaF/ox9ectO0PL14OJfufzhXy9Pth5dcz1jYjKqyfppTOsnjypSEam31vuUGL51I1sa2nryNK+yUvpFr43XqhSe7x7nf5D6c7Pk4e0kQB7eZR7mlGAC+jI/aMuynRJln5G2zWRpyeoP2/U6YOv3ouMX3rS2bsS7clY3aQuxuWsSuRnpv5bC3DyNqW1Ad3j/eaukeRH0tUf1nDu6ShrLTBMt3voOtshSccQVIz5SXSX853udrXLFMaH5KZc2sRkMoBL8R4C+X2f+1zZFX28tHzQ48JU+ZAbJ7Qcf1Uau9utGDeixwZ3C2VLVwb58b12jFohaWmeGZ+WL4NOsF96GMpB439L6boq3fpw5eJ+6e+s92Hb6s+ep0fWn7fufM3y83CPbscN9l7HfDGPokUUhYvAdDnuaPZcNqfPF1GYdpNmx8QPIrW2XaLldsJ9truHs+XPkeahr/at3Nxc7OpN82LTtEpo1qWPYSEPfJMvrnM1fwrsee6H1flQ6yjT7Xi7tp0/uZOnTldTVm74vrq+s/WZeWm56evr3s4PzfpK51xWJ+jyea7OXTVFQZo+v5zZl+WQk3wXXKr4+xPslz1Gep2R2S+1nN5mebmyte9j65TScVx27+nrVS+ntrdf3biNOob6+9opK8Pz8yq3siwTDq0/b5c6RumBOoujgy97wezVb2zHW5kpvVi2bj27YPSUu+hCezHX6ffOLoLlevR2Txg06HW6KT3Whfw9MM+zgsUPsgveBrEHrKtp7uZPTv48X5tqXl/Lgtb+3BJ6n3GkLedP/vrcJ/gqXta5sr4wv6KMUXTwUVS13Gpeus2KYKYi+Dpsv4o3nSub5q+U9yO1Yf3li08HYfbjUWy5XZW/6bQ+pss4Qf15q9TxSQ/cWRwVfGUn/YZMr2EZFG07AezJo+/oyptZ3mls2X56x1UMtuYqcDDf+0Qn3tny5wS2F2Dp3VAQbJh2BcbLc6BmcHAhLufP0ikCp1Os4wJakT+uq5n39YOv8jKbgpQ0CNlUhqctQOnNWmVdY/dbT+XfVZddh+7X5v3cfkxskKXSpa1e2WRbn3LrS/dPLWt6WU4UdG1g9nnDMS84sv68ZY6+ZFWPFfJkOPUlnH+tDeSrq9Mby4c6g2XyZ3O/u/cgagl5vO+tjQvrpSP95XvTSP9kJH8mU3Vdfsi4t0rd6b2Y7U63bfdKmGM0/Sv/zPdM5N9fPdjtt2RDC36+ZzKbbZi+f9KFNurIr986d2byc+XHEUBNubFX3vOzvH9+yufnX/vLkt6T6FJcBT/ydmhFsoeqsU9mXPCOMmw66Yvnebmpr+o/9YvZz3JMV+flS9SNvTyqdelXKHlmbNhIdr5J6ZyOqT9vnIPBl76w9gy8qgZXWh3ziMeWE6Bzr05mFZ99Hn4KP1Y8opdu9wb0XiX0pzJ818fPPmjwO3v3U0dexl/y9bVhGr+ky+l3pemChHfCANhK3Zg/6/c5hhLNF7JQ5ch4PFbTmynHy+KBWtYPJPAn0q+qIE5sWlHRzNOnvrY+ye2Hc908uz592TLS0jf2Y/Wd9e90ICbTofQv+aLjE9Sft+qCwVeibmDKT2rowEtdLNNAXVjbAq9SWnt3U3UCxOY5WF9WNyTl7dpXWUw+1+4g0rSBPC0foqza523bvQW2dUofv/hTFYr+/k/UdH6JXsX077/SsV1vScO5VZ/jgBtWN3i5zoZq6qa8P1E38R8qOPsIxZ/0a7xw+1D29UK5lqrUrqf103TrZZ+SqGvRftTridV1mX8CUgdib6ZxadtrmA7jvUYS1Xq79T71J8pMn+0pLZ9ws08/rAZRr/qps/7rZb+yfsLD7Mtq0F55mtvEa2mVYn94unzVoL+qtFm/e37bWdr8OIF629UDxe28wjYOp9fltPxgzbWxETVlYzMKxzFd54kO49k4nz9azTE71deHVXMdrmlF/rguN7YnXyan03q5Hqhyc1M5kC5z6Niq3DjQbHxUvsxdltfrY7DKY69OO+ZLWZZhhz7tmKXTY2XL3yfbj9z3VunW9uEi6tWfKFLHJz05Tie7OKqm3ImtTlRTYWcndXbibpmW51g5rWUG2Oe3rZ++yA2ENzak1cHfMlgzkz6R6qWttd0j6HW6bZXnx1xsaSGaP47pwFLXuZ8/ijpH9X7uLKc3XR9a3XU4phX54zqb99VTPmBRZcGOivfoIGf5KoZ00kGLCkVM+myb1YPci+s6efCl6YCoXIZVH4aicrqq+metjsq+uwPq1J8ouLMHS5dO+r9G6Zfc/XmYy9cBAyHbmPZQejzbJfJnH/q4mCb+Ix6QaKs25M8+LnGOn9O15Q+A9rvYmC/9NuH+7LAnUNqY9rpt/hMTaBfOcQA4v4u1fOlBvdJbfzy1jjamPYbTd+76Twi9e+lftI8WsvYXnm7ANbWsXOocPydavgC45qLdjqjH3cojlsGdfuxbxA+vp5tqX1TubiN/ALiG4KsFqDzcRv64jfwB4BpH33APAABwnQi+AAAAGkTwBQAA0CCCLwAAgAYRfAEAADSI4AsAAKBBBF8AAAANIvgCAABoEMEX3JHEMhp0zUsx06krg1FifwkAwHUg+IIjYhl4/fRvRIaRRFEkYSAyGXrSJQADAFwR/rxQC9zCn0eJB3fSn/gSzr8k/yci0/mBRIuxuPo3u/nzNW4jfwC4huCrBa6/8rB/oDuIZDF2NcTajMrdbeQPANfQ7Ygj6KApG5+Vn7qS9hQmMupW/d5O3ZFaQi/2IzP1n//g6Z8AALhqtHy1gA5UnM2fJEkDKGMu7899mUgo868X0b2HSRyruZt40uuppeKB3PUnEkRzefp5lz/DiUztEn4Qyce4Z9blKqfzB+QPAOcQfLVAWyqPZNQVb/i4//gsG3wZvi/B7zd5uhf5+fwjw4kKwxzvjqRydxv5A8A1BF8t0IrKIxlJ1xvKY7SQVZyUSDx6l89v+2PZw5O8vvSkY4MvP4zkQ/9sf61tGojvEip3t5E/AFzDmC+cgH5NxFCmQZQLvFI/3zOZzTZM3z/pQt6D+Oq/x/v17sXeU6D+ncr35r5LAABahZavFnD9zv3410FsedpxOR4s36LmFlpW3Eb+AHANLV84jgqO0m7BY97D1RPTwDX5VGFYUfypx4IF8uRo4AUAwL5o+WoBZ+/c7TgvPSD+47X4mohOZ98BWrb1S3wJwuKAez+cy5erA74UWlbcRv4AcA3BVws4W3nkn1IsOaibUP9tx3f7hKOhA7EPGTsceGlU7m4jfwC4huCrBag83Eb+uI38AeAaxnwBAAA0iOALAACgQQRfAAAADSL4AgAAaNBywD0AAADOj6cdW4CntdxG/riN/AHgGrodAQAAGkTwBQAA0CCCLwAAgAYRfAEAADSI4AsAAKBBBF8AAAANIviCG5KRdO/uzGsBytMgtssAAHAFeM9XC+gA5OrzRwdf3l95DN/k6d7OszyvJ52O/cFBN5E/LUb+AHANwVcL3ETlEQ/krj+TcP4lLw4HWlWo3N1G/gBwDd2OcMij3Lcs8AIAYF8EXzicbq26K43JKsxLZNStHsdlpu5ILZFKfmb2EwAA141uxxbQgYqr+RMP7qQ/C2X+9SIdE2x5MnyMZDHumd8ncSxz86mKJ71e2tSVjLri/X2U8LfI3+FEpmauL0H0IWO7jKtczh+QPwDcQ/DVAm5XHrEM7voyC+fyIc/iDR8lWowlDb3qM0HcxBc/+C1vZsT9j3z+GcpERWG+WveXwwPBqNzdRv4AcA3BVws4X3mYwfIT87EYKCUSj97l89v+WPbwJK8vPdkcVtmWtGlwUEDXFCp3t5E/AFzDmC8cr/ckgfkQyFupherneyaz2Ybp+8cutUlHfv321f8z+ckGhwEA0HK0fLWA63fu6bivQIVeE5nkxnvVZt7xNRSp6F40Y8HMr9x9BQUtK24jfwC4hpYvHCcemLFa4cdYxh+h+JP+/m+k7/wS3cA1/ftv+fRjKpF/f/Wgr9/yy9HACwCAfdHy1QLu3rmng+0nwaq1Kx04f8AYrWzcmB9I+PYk97kB90G0kH0b05pEy4rbyB8AriH4agFXK4/qQGs9IKsriUfybgMuwwRir/LCqyZwBPIHgGsIvlqAysNt5I/byB8ArmHMFwAAQIMIvgAAABpE8AUAANAggi8AAIAGEXwBAAA0iOALAACgQQRfAAAADSL4AgAAaBDBFwAAQIMIvgAAABpE8AUAANAggi8AAIAGHRd8xQPzR2u7o8TO2C2JRzLo3pl0ZuoOZBTXT78Sy8CkH0mt1Ila/tDtqrSjQXeV9q4rg7rfOan4vod83VtwTB7dtERG+eNWNW27Tux1vGmqvr6P3CYcY/NzEJc+W1vPkYEqjbPFij+7LB51pTu45nN0R56e0jF15I06MPhKzIl715/Yn2tSF7DXH8pEAgmjSKIoVJ8mMux7st85oU+kvkpZkwqAup5e/pDtqoBApR2qjQWhThtJGIhMht7uoNNst+L7el0CsLKj8ujWdeTXW3pumin0zVzfnq9mevulltqusHxuevtVlfI020S7VJ8jr+LZ37eHKoC/pzKdicztHBzqiDryxi30VFsUmOX15AfBQhW5Cz+c219uM1+o8lmlCxaRnZOKFiqfFuqqVkvUMw99tR5/4ev11UgXBVXbtfuzI32a1l+Uv2L1Oouql7HfN9iWsmiv/GmpY/Lo0pzLH3uN1j7F9l2+yinWcSa3cP0cz15rJgPTz4VyvWb+1ikX0ZQdebqFyceaF3Oa54fVkbfsgJavBxPdzucL+Xp9sPPqmOsbDZUXT9JLZ1g9eVLRiEy/692BJCN5Hk5Vffwhb4923laxfOomsrXt1pGlfZOX0i18b7xQJfp49zr9h9JdoScPaSMBlo7JIwDH68i9Kk/9B11apZ/Rdk3k6QnqyBu1f/DVe5HxS086e/cn9GSsbkIX43JWJPIzU/+tBSlVEhk9D2UaRPJVzumNNm3XBoOP95u7RpIfSXftsEZ1T0dZa0Flut1D1+kOlRd6DEHFuJ5Ed0nf6a5Vu0xhfEhuWqY9Io8AnIT3EMjv+9znyu7m46Xlgx4XpsqH3Dih5fir0tjPbsW4Az12uFsoW7oyyI8PtWPUCklL88z4tFz5dYr90o0DB43xLaXrqnTrw12L+6W/s96Hbas/e54eWUfeusOb5efhHt2OG+yxjrS7cdWMaZo19+qSmi/mUbSIonARmO6sHU2iy6b2+SIK0y7W7Hj5QVRju9FyO+E+2y05OH/OLOv+LWZdsaswPd6bpqojuGceOcC5/Dmw29EPy/mjJ5UfdrGt6Ha8btvOkdwJUqeraTVsxF8E2frMvPR699XvsvmhWV/pvMrqDF0Gz9X5qaYoSNPnlyvWD/kuuFS5/jh6v+wx0uuMzH6p5fQ2y8uVrX0fW2+UjmN6bFV5q69JvZza3tH175I6hvr72ikrw/PzKreyvO4PrSNvlzpG6YE6yNHBl70g6vQL223lT+L9gy873spM6YW0NW12Mekpd0GG9kKv0yeeXSDL9ejtVgYdm+l0bkqPZyH/jz4n9swjBziXP8sC0f68S/48X5tqBr/7brNBer9wpC3nSP5a3yf4KhYRubqgML+ijFF08FFUtdxqXvnGXdsUfB22X8WbzpVN81eq67EN6y9fYDoIsx+PYsvtqvxNp/UxXUb+vDiwjrxVF3zPl+6S8mQ49SWc7+oXVss+p92Naz1Te7HdW2qaR48yG/bFq2o6LtFP+My/vkx3a6/Xk5fxl6gLRmTyZ2uTcjzoitefyWM0N9tMt/tbZn2vusm6ddLxetO//5ZN38m/vzIV3zZv66diBzIYbJhGVU3mh+URjqfKyeV5upoYs4GVqnOk/hCQvEe5r0qmh59UzJ9+FwdvdOy4lyRJJIljieO0+6tIlSWqoJ4OPfHMOOHXGufyofu1aYiEHWu1cUxzOmbKV+nUl0m/j5nEjA1erb8jv36rGZO+6ZLUr+AxZac6DlW7u7fOi3zl8tTUb6q+XeXz19qYrrxD68hbdqHgKx94bc9ULR6kywYP6rO50NLJjBWTb/mnf9Zn6x46vbF8qFuJrSeH96DCCH099dZO8F76lICUyoSVZCR/JumDAePeKnWn92K2O72Sk9Ich+lf+We+SyL//uoBbb8lG1rw8z2T2WzD9P2TLrRBrTwCcFtyY6+852d5//yUz8+/9pclvSfRJbWKJOTtoCBxP1Vjn8zYXxUa/mwpw6YqqPI8FSQup76q89QvZj/LG9TOy5e6IQ1VeDgzr+DxzNiwkQrfLuiYOvLGXSD40hdO/cBrZSqTYV/6/dVkTs6pfheU+vl9Qw5XDby0OuktyeaTo3OvTnRV938efno/VtxGpdu9Er1XCf2pDN/1MbIPE/zO3u/UMXdAX+qOqHIav6TLHZNHAG6I7gXR7wMMJZovZKHKkfF4rKY3U1aXxQO1rB9I4E+k30ALermFTpunTWLVLWqWH656RwrTly0jLX3zPlbfWf9OB2IyHUr/ki8zPkEdeavOGHylzcHFk0IHXupimAbqwtkWeBXTpo+srk+mWdMPZa5/XvZHlrZr73yqTo7YPCPry+pmpbzP9jUYk8+1u4s0bSBPy3bsqu+7bbvXImsOV8co/lSFYtbluIe98gjHqT5P6zkmLXAKqxu8XIdCNXVT15+om/wPFZx9hOJP+pU3eKdhXyGUa6lK7XqaP02XH7qxpLsf7Ue9HtPjk1tIB2JvpnGp5mua9uC9RhK91il096kjUWYGxu1j+QSbfbrBD7KnIlaD/9LBi7kBd/oJDrOt1aC88pSNoVxLu4EKvtYGKlalzeb5y6cOqwcEVm93fb+ztPnBnfW2q5/gs/N2fLc8vbzT8oM1twws3aZuHrnIufzZMvi98hyvOVi++vqwGHB/3Wz+7noiNjtHAlU2bioH0mXKg/I3DUy35e/yxMoPgFfbME/95crVZZlcTqe/gk2X/zm3veP2S8kGn6tlD3vaMUunnxwsf59sP3LfW6Vb24eLqFdHokgdn/TkqC87+aum3ImrTkRTIWcnbXZibpmW51A57QZVwdemtOapw/x+6yczio+vbN6uvoiyQMBM+iSrl7bWdnfQ6dy2OieOudhOcawuwbn8UcdR71NlmVx1nm5bPq8qbabuOi7AufxpI5u/1VM+YFFlwY6K9+ggZ/kqhnTSQYsKRUz6bJvlQCtVXNfJgy9NB0SFMkzdTFYfhqJyuqo6Zq0eyr67A+rUkSi4swdLl076v5PSL7H78zA/6GmYW0u7jR4PdY78OSX93U0T/17j+K5DG/Inz8Vz/Jzalj8Art/Zgi/9tmDv76NEX/s/qn5raXdxv/KIZXDXl4l+NPm4d4G0Upsqd1fP8XMi+ALgmvMFX3Es0lt//LSOW0u7i9OVR5LI6N1L/6J9tDjyPWzt1Krgy9Fz/JwIvgC45qzdjjgNdysP2+KlPvlhu7qiTonK3W3kDwDXEHy1AJWH28gft5E/AFxzwT8vBAAAcHsIvgAAABpE8AUAANAggi8AAIAGEXwBAAA0iOALAACgQQRfAAAADSL4AgAAaBDBF9yRxDIadM1LMdOpK4NRYn8JAMB1IPiCI2IZeP30b0SGkURRJGEgMhl60iUAAwBcEf68UAvcwp9HiQd30p/4Es6/JP8nItP5gUSLsbj6N7v58zVuI38AuIbgqwWuv/Kwf6A7iGQxdjXE2ozK3W3kDwDX0O2II+igKRuflZ+6kvYUJjLqVv3eTt2RWkIv9iMz9Z//4OmfAAC4arR8tYAOVJzNnyRJAyhjLu/PfZlIKPOvF9G9h0kcq7mbeNLrqaXigdz1JxJEc3n6eZc/w4lM7RJ+EMnHuGfW5Sqn8wfkDwDnEHy1QFsqj2TUFW/4uP/4LBt8Gb4vwe83eboX+fn8I8OJCsMc746kcncb+QPANQRfLdCKyiMZSdcbymO0kFWclEg8epfPb/tj2cOTvL70pGODLz+M5EP/bH+tbRqI7xIqd7eRPwBcw5gvnIB+TcRQpkGUC7xSP98zmc02TN8/6ULeg/jqv8f79e7F3lOg/p3K9+a+SwAAWoWWrxZw/c79+NdBbHnacTkeLN+i5hZaVtxG/gBwDS1fOI4KjtJuwWPew9UT08A1+VRhWFH8qceCBfLkaOAFAMC+aPlqAWfv3O04Lz0g/uO1+JqITmffAVq29Ut8CcLigHs/nMuXqwO+FFpW3Eb+AHANwVcLOFt55J9SLDmom1D/bcd3+4SjoQOxDxk7HHhpVO5uI38AuIbgqwWoPNxG/riN/AHgGsZ8AQAANIjgCwAAoEEEXwAAAA0i+AIAAGjQcsA9AAAAzo+nHVuAp7XcRv64jfwB4Bq6HQEAABpE8AUAANAggi8AAIAGEXwBAAA0iOALAACgQQRfAAAADSL4gqNiGdzdyV13JImdAwDANSD4goMSGXX7MrE/AQBwTQi+4Jxk9CzDqS++b2cAAHBFCL7glmQkz8Op+OGHvD3aeQAAXBGCLxwuHpg/3TKI7c9aYZ7uPrwzP1dOa+O51PLPQ5kGkXy9dOw8AACuC3/bsQV0oOJq/sSDO+nPQpl/vUjHBFueDB8jWYx75vdJHMvcfKriSa+3CrKSUVe84aNEi7Ho1MV1u8vl/AH5A8A9BF8t4HbloZ9K7MssnMuHPBeCp70kI+l6Q3mMFmLjNoIvnAT5A8A1BF8t4Hzlobsa++mzib4KwlZdhonEo3f5/LY/lj08yetLr7LFTCP4wimQPwBcw5gvHK/3JIH5EMhbaazWz/dMZrMN0/ePWSYeqMBr6kvwoD7H8XL6menffss//XPC274AANeBlq8WcP3OPW2hClToNZFJqfWqDpN+10u9gv3X2xRaVtxG/gBwDcFXCzhdeZgux5mE8y95kfVxW8eg2xGnQP4AcA3djjhCLAPdZBW8ielt7LzIWyAy6Q/UbwAAQBWCLxwsHug/ARRIlGvm6o0j0/3YL7z8CwAAZOh2bAG6TdxG/riN/AHgGlq+AAAAGkTwBQAA0CCCLwAAgAYRfAEAADSI4AsAAKBBBF8AAAANIvgCAABoEMEXAABAgwi+AAAAGkTwBQAA0CCCLwAAgAYRfAEAADTovMFXPDB/1LY7SuyM3ZJ4JIPunUlnpu5ARnH99CuxDEz6kWxNbfdx2zSI7bKbJBX7fMgu37jT5T2KEhnlj2vVVHmdHJoO7WPz2hR2+c/W1nJyoErbbLHizy6LR13pDq75/N2Rp2dTs+69cWcKvhJzYt/1J/bnmtQF7vWHMpFAwiiSKArVp4kM+97uAKhAn2h9lbIG71VtR2+rYgp8u9AWKvDqehX77HUJwPZxsrzHuo78esud12F6Xvthbt7bL7VU2aHpcK0Keb+cXsWzv28PVTh/T2U6E5nbOTiFPepeyEJPJxMFZn168oNgoYrrhR/O7S+3mS9U2a7SBYvIzklFi0Cvzw/VEvXMQ1+tx1/4en17pCuy+7MjfRRs2eegOPdQJ80fJ50u7y+hdfljr9G9T89D013Y9V8/p2CvQZO56edCuV0z76vLQ1zGjjzdwuTjARf6aere23CGlq8HCdTd0Xy+kK/XBzuvjrm+EVHX7ZP00hlWT55UDSzT73p3KMlInodTle8f8vZo5x0i+Sd/1f4Eby+77+z9h9KdnycPNRrNkDlR3gM4UEfuVXnpP+iSLP2Mtms4T09V996I0wdfvRcZv/Sks3dfRE/G6iZ1MS5Wv7oZ82em/lsLcKokMnoeyjSI5OvluM6Q+F2tRwJ5Ku9OiaejrLXgIA0m0pP+Wunm5ep+/UR3Od/pble7zNoYETst054i7wEcw3sI5Pd97vOv83Qop+WDHhemyoeB/pyWB8vxV0lcGPvZrRh3oMeHdgtlS1cG+fGhdoxaIWlpnhmfliu/TrFfOgA5aPxvKV1XpVsf7lrcL/2d9T5sW31TeWr27UR17y05X7P8PNyj23GDPdaRNnmumrxN0+khTZ977Xe0CEwTa7AIo2gRReHy51M1vZ8tf46UNTEXD5Nt6rbHfW6OyaZpx/E9xfnTAFfzZyO6HbEvm/d+WHEd5y7POt2Oq64pfxFk6zPz0nLTV7/L5odmfaVzLisX1Mz5fG6mKEjT55crlv/5LrhUuX44er/sMdLrjMx+qeX0NsvLla19H1unlI5jemxVeasOuFlObe905aM6hvr72ikrw/Pztm3lZHXvDVHnRXpynMXRlae9YOqMIbDb2nzx1Zee5PWDp+wiyI6lvkCCXYHFHs6WP0dLx2QV8vdkAdMeeX9h7ubPBocGUYemu7DW5Y+LssCiYspf63XKzq03bTptYX5FGaPo4KOoarnVvHJwoJXrh+P2yy63Vt9smr9SXU9tWH/54tNBmP14FFtuV+VvOpWPS84J695b4vB7vnSXlSfDqS/hfFwaC1S2avJc67naVzKSPxN1qoWvO7aZigdd8fozeYzmuoQ30zz6LbO+V90sfVXSMVnTv/+WTd/Jv78yFd82b+unXgcyGGyYRpuazPfJewBNURXsspzLpsO6mR7lviqZHmJQMX/6XRzY0bHjWpIkkSSOJY5/RI9QKOrJWEUB06EnnhmLVKdMP3S/7LjVx/vSGGE71mrjuNVYPnV9o9KpL5N+HzOJGTe8Wn9Hfv1WMyZ90yWpX8Fjyk51HKp2d2+dF/nK5ak6bDqzc/n8JdXZfMK698Y4GnzlK99Nmb4SD9Jlgwf12VyI6WTGC8m3/NM/67O5hmys11udAsUEaukAw3FvtXyn9yIf6jZlOvlz9a+b6KXRl/wz3zORf/opBf+3ZEMLfr5nMpttmL5/0oUK9st7ADcmN/bKe36W989P+fz8a39Z0ntSpblWs0w/UtU4XzMuWIWGP1vqgqkKqjxPBYnLqa/KQPWL2U8aZCmdly91Yx+q8HBmXsHjmbFho4u+U+2Ude+tcTD40hfWIZXvVCbDvvT7q8mcvFP9rij183v1fUdRehey/tTddo8Vt0qdW3lcqPcqoT+V4bsuAuyDBr+zdz915GX8JV9fG6Zx+UnSQ/MewG3QLS36PVKhRPOFLFQ5Mh6P1fSmgpJ18UAt6wcS+BPpN9ATUW6h0+Zpk1h1i5rlh6uek8L0VSwj9Y39WH1n/TsdiMl0KP2Lv8z0FHXv7blg8JU2FxdPGl35qotlGqgLa1vlW0zbG1ectGoyTad+KHP987JNtGq7qWT0R13UquJ/3RR6VaedfK5f1LGJ4m5B1hz+qe54Ps3xO+yJmrp5j/PafH0Al7e6wct1NlSLB9KfqPL8QwVnH6H4k/4ZX9hsXy+Ua6lK7XpiO02XH7qxpLsf7Ue9HtOqlFtIB2Jvuo47w6t4vNdIotfdz5jvV/ci7yzBly68zYny7zud8f3PNkeuTqZk9Cyeioq97GrQTcl3uvL1JQif1DVm15GbstbLtbR72Jw2lncdrgdvGyv+tbSdtHtx1Q+v91M/MtxVF70697as65p0fv1WIZe6szRfetXlWNseeY/zOubawvWb/axfm/lyPe1im8jnKB84nJINVobvpjsrHfOly1x945ynyhRdHmVlsCqrdaAy6Z/rTx915EVvYDoUT3cFmn2L7RAKvRub3hep0unAUKV7HmTp7F+I8Tx5zo1b+fnTl/6zfgWF/d7J6KCemjo6nZ4Kbm+g8row8zTD6WRPh1RNuadNsicEsycitjxNk03LpynKaTeofOJiQ9rqJ11KNqXV8/PfWT+qfBNPO2ZWeV582qimffLeQXr/WsUe78pjuuEcN7alc1jr8sdFW6/R/FOEqiywr33YVBZUPXm4LEPWzrv0qb/CU37LVzGkkx/oNGn6bJum7F/bRnFd5frh6P3S5vZVQ3bfzCuIqg9DUTmdfmK+nFC/usIe22xKv7t7KuteFNzZTDRNhU3TL7n78zA/6GmZNqY9lB5Yeon82Yc+LqaJ/wa7DNuQP/u4xDl+TteWPwDa72JjvvTbhPuzw55AaWPa65Y9qHAb3azXjHMcAM7vYi1felyY9Hob+sG3a2PaYzh9554kMnr3ZKiHV0SLm3zXyzW1rFzqHD8nWr4AuOai3Y6ox93Kww6UV5/0o9LX0k21Lyp3t5E/AFxD8NUCVB5uI3/cRv4AcI2jb7gHAAC4TgRfAAAADSL4AgAAaBDBFwAAQIMIvgAAABpE8AUAANAggi8AAIAGEXwBAAA0iOAL7khiGXTvzEsxzdQdyChO7C8BALgOBF9wQzKSrqf/VFEgYRRJFIXq00SGfU8GsV0GAIArwJ8XaoFb+PMo8eBO+pNAosVYVn+bO5FR15OhhDL/enH2jz3z52vcRv4AcA0tX3BALJ/6r3MHT7nACwCA60TwhSPEMsjGZxWmrozMUC3dclX1ezt1R2oJrSfjxUIW43LoNZfvqfrv8d7ZVi8AAPZFt2ML6EDF2fxJEhtAaXN5f9bjtlbdhEkcq7mbeNLrlcMqtb54rtL8yOefoRkDFn3luyLd43T+gPwB4ByCrxZoS+WRjLriDR9L47b2pVvTdACn+RKEb/L60nO65YvK3W3kDwDXEHy1QCsqD/O04lAeo4Wseg8TiUfv8vltfyx7eNoaWCXxQJ77E5kGUUWXpDuo3N1G/gBwDcFXC7hfedjWqrUgKZHR4Fn+zuyPZY+/5WO8/SnGtDVNJJx/yYujzV9U7m4jfwC4huCrBVyvPKpfE7GHeCB3/YkEhVYza9vvHEHl7jbyB4BreNoRx1HBUX/iSzg/YpxX70kC9d/kc/1tqrF5B4UvD176MwAAbUfLVws4e+dux3lJEMnHazE66nT26yNMuxen4vuB/H57kns17+fzjwwnU7N+xnzhUOQPANcQfLWAs5WH7RKsckg3oRlg/2ciU/1uL833JXj7UOtx+VlHKnfXkT8AXEPw1QJUHm4jf9xG/gBwDWO+AAAAGkTwBQAA0CCCLwAAgAYRfAEAADRoOeAeAAAA50fLFwAAQIPuFsr//vc/+e+//+wsuIb8cRv54zbyB4BbRP4f7gza56TNncYAAAAASUVORK5CYII=;" vertex="1" parent="1">
          <mxGeometry x="1020" y="152" width="332.7" height="188" as="geometry" />
        </mxCell>
        <mxCell id="90rEh2KffNQOqLEjoO5k-17" value="" style="rounded=0;whiteSpace=wrap;html=1;fillColor=#dae8fc;opacity=40;strokeColor=#6c8ebf;" vertex="1" parent="1">
          <mxGeometry x="730" y="89" width="670" height="541" as="geometry" />
        </mxCell>
      </root>
    </mxGraphModel>
  </diagram>
</mxfile>
